<svg width="960" height="360" viewBox="0 0 960 360" fill="none" xmlns="http://www.w3.org/2000/svg">
<g clip-path="url(#clip0_3610_78123)">
<rect width="960" height="360" fill="#4DB6AC"/>
<g clip-path="url(#clip1_3610_78123)">
<path d="M760 -100H200V460H760V-100Z" fill="#4DB6AC"/>
<path d="M740.277 299.345C740.277 285.966 621.969 275.119 476.03 275.119C330.091 275.119 211.782 285.966 211.782 299.345C211.782 304.799 231.45 309.587 264.632 313.345C264.474 313.637 264.389 313.964 264.383 314.297C264.383 325.295 361.647 332.992 481.627 332.992C601.607 332.992 698.871 325.295 698.871 314.297C698.871 313.558 698.425 312.827 697.569 312.107C724.58 308.557 740.277 304.217 740.277 299.345Z" fill="#349E92"/>
<path d="M380.188 274.92C380.166 274.022 379.793 273.167 379.15 272.54C378.506 271.912 377.643 271.561 376.744 271.56H364.217V237.428H371.59C372.504 237.428 373.38 237.065 374.027 236.419C374.673 235.772 375.036 234.896 375.036 233.981V213.987C375.036 213.072 374.673 212.196 374.027 211.549C373.38 210.903 372.504 210.54 371.59 210.54H342.635C346.843 210.536 350.901 208.977 354.03 206.163C357.159 203.349 359.138 199.479 359.587 195.295C360.036 191.11 358.923 186.908 356.463 183.494C354.002 180.081 350.367 177.696 346.255 176.8H370.895V150.368H360.213V126.47H283.518C280.38 126.518 277.387 127.798 275.185 130.034C272.983 132.27 271.748 135.283 271.748 138.422C271.748 141.56 272.983 144.573 275.185 146.809C277.387 149.045 280.38 150.325 283.518 150.373H268.099C264.873 150.376 261.76 151.558 259.346 153.697C256.932 155.836 255.383 158.784 254.992 161.986C254.6 165.187 255.393 168.421 257.221 171.079C259.049 173.736 261.785 175.634 264.915 176.413H243.369V210.545H236.28C235.365 210.545 234.489 210.909 233.842 211.555C233.196 212.201 232.833 213.078 232.833 213.992V233.987C232.833 234.901 233.196 235.778 233.842 236.424C234.489 237.071 235.365 237.434 236.28 237.434H244.834C240.427 237.612 236.26 239.488 233.206 242.669C230.151 245.85 228.445 250.09 228.445 254.5C228.445 258.91 230.151 263.149 233.206 266.33C236.26 269.511 240.427 271.387 244.834 271.566H241.44C240.541 271.565 239.677 271.917 239.034 272.545C238.39 273.172 238.018 274.027 237.996 274.926C237.996 274.954 237.996 274.982 237.996 275.013V295.007C237.996 295.035 237.996 295.063 237.996 295.094C238.019 295.993 238.391 296.847 239.035 297.475C239.678 298.102 240.541 298.454 241.44 298.454H376.747C377.646 298.454 378.509 298.102 379.152 297.475C379.796 296.847 380.169 295.993 380.191 295.094C380.191 295.066 380.191 295.038 380.191 295.007V275.013C380.194 274.987 380.191 274.959 380.188 274.92Z" fill="white"/>
<g opacity="0.8">
<path d="M342.635 210.545C347.161 210.545 351.502 208.747 354.702 205.547C357.903 202.346 359.701 198.005 359.701 193.479C359.701 188.953 357.903 184.612 354.702 181.412C351.502 178.211 347.161 176.413 342.635 176.413H243.369V181.585L253.071 193.479L243.369 205.373V210.545H342.635ZM342.635 186.745C344.417 186.745 346.126 187.453 347.387 188.713C348.647 189.974 349.355 191.683 349.355 193.465C349.355 195.247 348.647 196.957 347.387 198.217C346.126 199.477 344.417 200.185 342.635 200.185H248.541V186.745H342.635Z" fill="#1B3A3F"/>
<path d="M342.635 205.377C343.364 205.376 344.091 205.308 344.808 205.175V181.787C344.091 181.653 343.364 181.586 342.635 181.585H243.369V205.385L342.635 205.377Z" fill="white"/>
<path d="M354.529 193.479C354.529 190.701 353.556 188.011 351.78 185.875C350.004 183.74 347.536 182.293 344.805 181.786V205.175C347.536 204.668 350.004 203.221 351.781 201.084C353.557 198.948 354.529 196.257 354.529 193.479Z" fill="#EB6029"/>
<path d="M344.808 184.584H243.369V192.687H344.808V184.584Z" fill="#E1E1E1"/>
<path d="M344.808 196.996H243.369V200.205H344.808V196.996Z" fill="#E1E1E1"/>
<path d="M283.518 126.47C280.38 126.518 277.387 127.798 275.185 130.034C272.983 132.27 271.748 135.283 271.748 138.422C271.748 141.56 272.983 144.573 275.185 146.809C277.387 149.045 280.38 150.325 283.518 150.373H360.213V146.753L354.16 138.804L360.213 130.093V126.47H283.518ZM283.518 143.133C282.269 143.133 281.071 142.636 280.188 141.753C279.305 140.87 278.809 139.672 278.809 138.423C278.809 137.174 279.305 135.976 280.188 135.093C281.071 134.21 282.269 133.713 283.518 133.713H356.598V143.133H283.518Z" fill="#4A798D"/>
<path d="M283.518 130.09C283.008 130.09 282.499 130.137 281.998 130.23V146.61C282.499 146.703 283.008 146.75 283.518 146.75H360.213V130.09H283.518Z" fill="white"/>
<path d="M275.186 138.42C275.186 140.366 275.867 142.25 277.111 143.745C278.355 145.241 280.083 146.255 281.995 146.61V130.23C280.082 130.586 278.354 131.599 277.11 133.095C275.867 134.591 275.186 136.475 275.186 138.42Z" fill="#4A798D"/>
<path d="M275.186 138.42C275.186 140.366 275.867 142.25 277.111 143.745C278.355 145.241 280.083 146.255 281.995 146.61V130.23C280.082 130.586 278.354 131.599 277.11 133.095C275.867 134.591 275.186 136.475 275.186 138.42Z" fill="black" fill-opacity="0.26"/>
<path d="M360.213 133.044H281.995V136.261H360.213V133.044Z" fill="#E1E1E1"/>
<path d="M360.213 137.757H281.995V142.354H360.213V137.757Z" fill="#E1E1E1"/>
<path d="M380.188 274.921C380.166 274.022 379.793 273.168 379.15 272.54C378.506 271.913 377.643 271.561 376.744 271.561H241.44C240.541 271.56 239.677 271.912 239.034 272.539C238.39 273.167 238.018 274.022 237.996 274.921C237.996 274.949 237.996 274.977 237.996 275.007V295.002C237.996 295.03 237.996 295.058 237.996 295.089C238.019 295.987 238.391 296.842 239.035 297.469C239.678 298.097 240.541 298.449 241.44 298.449H376.747C377.646 298.449 378.509 298.097 379.152 297.469C379.796 296.842 380.169 295.987 380.191 295.089C380.191 295.061 380.191 295.033 380.191 295.002V275.007C380.194 274.988 380.191 274.96 380.188 274.921Z" fill="#1B3A3F"/>
<path d="M244.834 237.436C240.427 237.615 236.26 239.491 233.206 242.672C230.151 245.853 228.445 250.092 228.445 254.502C228.445 258.913 230.151 263.152 233.206 266.333C236.26 269.514 240.427 271.39 244.834 271.568H364.217V266.397L344.592 257.384L364.217 242.605V237.434L244.834 237.436Z" fill="#EB6029"/>
<path d="M288.925 237.436C284.519 237.615 280.352 239.491 277.297 242.672C274.243 245.853 272.537 250.092 272.537 254.502C272.537 258.913 274.243 263.152 277.297 266.333C280.352 269.514 284.519 271.39 288.925 271.568H364.181V266.397L350.338 256.924L364.181 242.605V237.434L288.925 237.436Z" fill="#E34419"/>
<path d="M289.65 242.605C286.494 242.605 283.467 243.859 281.236 246.091C279.004 248.323 277.75 251.349 277.75 254.505C277.75 257.662 279.004 260.688 281.236 262.92C283.467 265.152 286.494 266.405 289.65 266.405H364.217V242.605H289.65Z" fill="white"/>
<path d="M364.181 247.5H280.035C278.551 249.532 277.752 251.984 277.756 254.5H364.181V247.5Z" fill="#E1E1E1"/>
<path d="M364.181 256.916H278.002C278.583 259.708 280.147 262.198 282.41 263.933H364.181V256.916Z" fill="#E1E1E1"/>
<path d="M305.988 288.374L300.064 283.547L293.923 288.374V256.916H305.988V288.374Z" fill="#E34419"/>
<path d="M371.59 210.545H236.28C234.376 210.545 232.833 212.088 232.833 213.992V233.987C232.833 235.89 234.376 237.433 236.28 237.433H371.59C373.493 237.433 375.036 235.89 375.036 233.987V213.992C375.036 212.088 373.493 210.545 371.59 210.545Z" fill="#4A798D"/>
<path d="M246.931 228.826C249.601 228.826 251.766 226.662 251.766 223.991C251.766 221.32 249.601 219.155 246.931 219.155C244.26 219.155 242.095 221.32 242.095 223.991C242.095 226.662 244.26 228.826 246.931 228.826Z" fill="white"/>
<path d="M261.23 228.826C263.901 228.826 266.066 226.662 266.066 223.991C266.066 221.32 263.901 219.155 261.23 219.155C258.56 219.155 256.395 221.32 256.395 223.991C256.395 226.662 258.56 228.826 261.23 228.826Z" fill="white"/>
<path d="M275.527 228.826C278.198 228.826 280.363 226.662 280.363 223.991C280.363 221.32 278.198 219.155 275.527 219.155C272.857 219.155 270.692 221.32 270.692 223.991C270.692 226.662 272.857 228.826 275.527 228.826Z" fill="#4A798D"/>
<path d="M275.527 228.826C278.198 228.826 280.363 226.662 280.363 223.991C280.363 221.32 278.198 219.155 275.527 219.155C272.857 219.155 270.692 221.32 270.692 223.991C270.692 226.662 272.857 228.826 275.527 228.826Z" fill="black" fill-opacity="0.26"/>
<path d="M268.099 150.373C264.594 150.373 261.232 151.765 258.754 154.244C256.275 156.722 254.883 160.084 254.883 163.589C254.883 167.094 256.275 170.456 258.754 172.934C261.232 175.413 264.594 176.805 268.099 176.805H370.887V172.801L355.68 165.821L370.876 154.377V150.373H268.099Z" fill="#EB6029"/>
<path d="M312.585 150.373C309.08 150.373 305.719 151.765 303.24 154.244C300.762 156.722 299.369 160.084 299.369 163.589C299.369 167.094 300.762 170.456 303.24 172.934C305.719 175.413 309.08 176.805 312.585 176.805H370.859V172.801L360.14 165.465L370.859 154.377V150.373H312.585Z" fill="#E34419"/>
<path d="M313.145 154.377C311.922 154.356 310.707 154.579 309.571 155.032C308.435 155.485 307.4 156.16 306.528 157.018C305.655 157.875 304.962 158.898 304.489 160.026C304.016 161.154 303.773 162.365 303.773 163.588C303.773 164.811 304.016 166.022 304.489 167.15C304.962 168.278 305.655 169.301 306.528 170.158C307.4 171.016 308.435 171.691 309.571 172.144C310.707 172.597 311.922 172.82 313.145 172.799H370.887V154.377H313.145Z" fill="white"/>
<path d="M370.859 159.361H304.964C304.287 160.668 303.934 162.118 303.936 163.589H370.856L370.859 159.361Z" fill="#E1E1E1"/>
<path d="M305.876 169.242H370.887V167.173H304.658C304.972 167.913 305.382 168.609 305.876 169.242Z" fill="#E1E1E1"/>
</g>
<path d="M725.258 114.262C719.134 110.552 711.459 110.756 704.098 114.083C707.637 105.54 706.45 93.2592 700.256 82.4652C698.429 79.2486 696.18 76.29 693.57 73.6676C698.848 73.2812 704.302 69.7476 707.884 63.7276C713.464 54.342 712.364 42.4868 705.453 37.248C698.543 32.0092 688.39 35.3748 682.807 44.7604C678.657 51.738 678.192 60.0764 681.074 66.0404C676.199 64.7356 671.4 65.3292 667.452 68.1628C657.828 75.0732 656.913 92.6768 665.405 107.483C671.845 118.683 681.816 125.081 690.459 124.527C688.725 126.54 687.162 128.694 685.786 130.967C679.727 140.968 677.946 151.967 680.144 160.678C668.199 152.558 654.622 150.673 644.528 157.071C629.22 166.779 627.728 191.878 641.213 213.127C644.937 219.059 649.668 224.294 655.193 228.597H632.821V299.031H717.768V228.611H699.352C708.743 216.79 708.074 196.008 696.647 177.987C696.231 177.332 695.806 176.689 695.373 176.058C706.596 178.248 720.377 170.76 728.718 156.99C738.664 140.571 737.116 121.444 725.258 114.262Z" fill="white"/>
<g opacity="0.8">
<path d="M682.807 44.76C677.224 54.1456 678.31 66.0008 685.234 71.2368C692.159 76.4728 702.298 73.11 707.884 63.7272C713.47 54.3444 712.364 42.4864 705.453 37.2476C698.543 32.0088 688.39 35.3716 682.807 44.76Z" fill="#547742"/>
<path d="M665.405 107.48C673.897 122.287 688.586 128.687 698.21 121.777C707.833 114.867 708.752 97.2574 700.259 82.4538C691.767 67.6501 677.078 61.2493 667.454 68.1737C657.831 75.0981 656.912 92.6822 665.405 107.48Z" fill="#5F894C"/>
<path d="M685.8 130.978C675.857 147.391 677.4 166.521 689.264 173.703C701.127 180.885 718.79 173.398 728.744 156.984C738.698 140.57 737.144 121.441 725.283 114.259C713.422 107.077 695.732 114.561 685.8 130.978Z" fill="#5F894C"/>
<path d="M641.216 213.138C654.689 234.39 678.022 243.748 693.332 234.04C708.642 224.332 710.132 199.236 696.647 177.984C683.162 156.732 659.838 147.374 644.528 157.082C629.218 166.79 627.736 191.889 641.216 213.138Z" fill="#547742"/>
<path d="M717.77 228.61H635.173V299.044H717.77V228.61Z" fill="#EB6029"/>
</g>
<path d="M292.095 312.605H679.948C683.063 312.605 686.124 311.785 688.821 310.226C691.519 308.667 693.758 306.426 695.314 303.727H276.72C278.277 306.427 280.517 308.669 283.217 310.228C285.916 311.787 288.978 312.607 292.095 312.605Z" fill="#CCCCCC"/>
<path d="M513.695 294.845C513.002 295.866 512.07 296.702 510.98 297.28C509.889 297.858 508.674 298.16 507.44 298.16H464.6C463.366 298.161 462.151 297.861 461.06 297.284C459.969 296.708 459.036 295.873 458.342 294.853H274.334C274.333 297.972 275.159 301.036 276.728 303.732H695.32C696.888 301.036 697.714 297.972 697.714 294.853L513.695 294.845Z" fill="#E1E1E1"/>
<path d="M464.6 298.16H507.44C508.674 298.162 509.889 297.861 510.98 297.285C512.071 296.708 513.004 295.874 513.698 294.854H458.348C459.041 295.873 459.974 296.707 461.063 297.283C462.153 297.86 463.367 298.161 464.6 298.16Z" fill="#CCCCCC"/>
<path d="M645.525 72.6533H326.518C322.479 72.6533 319.204 75.9277 319.204 79.9669V287.531C319.204 291.57 322.479 294.845 326.518 294.845H645.525C649.564 294.845 652.838 291.57 652.838 287.531V79.9669C652.838 75.9277 649.564 72.6533 645.525 72.6533Z" fill="#1B3A3F"/>
<path opacity="0.3" d="M413.086 72.6533L533.349 294.845H595.047L436.082 72.6533H413.086Z" fill="white"/>
<path opacity="0.2" d="M652.839 287.52V219.903L574.307 72.6533H456.407L614.221 294.845H645.525C646.486 294.845 647.438 294.655 648.326 294.287C649.214 293.919 650.021 293.379 650.7 292.699C651.38 292.018 651.918 291.211 652.285 290.322C652.652 289.433 652.84 288.481 652.839 287.52Z" fill="white"/>
<path d="M633.98 89.5264H338.062V277.966H633.98V89.5264Z" fill="#349E92"/>
<path d="M568.096 208.938H403.456C400.973 208.936 398.592 207.948 396.836 206.192C395.08 204.436 394.093 202.055 394.09 199.572V110.429C394.093 107.945 395.08 105.564 396.836 103.808C398.592 102.052 400.973 101.065 403.456 101.062H568.096C570.58 101.065 572.96 102.053 574.716 103.809C576.472 105.565 577.459 107.945 577.462 110.429V199.575C577.459 202.058 576.472 204.438 574.716 206.193C572.96 207.949 570.579 208.936 568.096 208.938ZM403.456 104.68C401.935 104.682 400.475 105.287 399.399 106.363C398.323 107.439 397.718 108.898 397.716 110.42V199.567C397.718 201.088 398.323 202.548 399.399 203.624C400.475 204.7 401.935 205.305 403.456 205.307H568.096C569.618 205.305 571.077 204.7 572.154 203.624C573.23 202.548 573.835 201.088 573.836 199.567V110.429C573.835 108.907 573.23 107.447 572.154 106.371C571.077 105.295 569.618 104.69 568.096 104.689L403.456 104.68Z" fill="white"/>
<path d="M568.099 102.877H403.456C399.286 102.877 395.905 106.258 395.905 110.429V199.575C395.905 203.746 399.286 207.127 403.456 207.127H568.099C572.27 207.127 575.651 203.746 575.651 199.575V110.429C575.651 106.258 572.27 102.877 568.099 102.877Z" fill="#1B3A3F"/>
<path d="M568.099 102.877H403.457C399.286 102.877 395.905 106.258 395.905 110.429V199.575C395.905 203.746 399.286 207.127 403.457 207.127H568.099C572.27 207.127 575.651 203.746 575.651 199.575V110.429C575.651 106.258 572.27 102.877 568.099 102.877Z" fill="white" fill-opacity="0.12"/>
<path d="M404.506 146.514L406.746 144.274C405.741 144.707 404.94 145.509 404.506 146.514Z" fill="white"/>
<path d="M411.593 148.85V149.668L414.48 146.77C414.348 146.423 414.176 146.094 413.968 145.787L411.532 148.223C411.569 148.43 411.59 148.64 411.593 148.85Z" fill="white"/>
<path d="M411.291 147.411L413.506 145.196C413.254 144.942 412.972 144.721 412.666 144.538L410.56 146.635C410.874 146.818 411.127 147.087 411.291 147.411Z" fill="white"/>
<path d="M409.44 143.76C409.037 143.759 408.635 143.788 408.236 143.847L404.072 148.01C404.004 148.455 403.97 148.904 403.972 149.354C403.972 149.438 403.972 149.517 403.972 149.598L409.796 143.774C409.686 143.768 409.566 143.76 409.44 143.76Z" fill="white"/>
<path d="M409.44 146.352C409.549 146.353 409.657 146.36 409.765 146.374L411.946 144.193C411.567 144.045 411.174 143.938 410.773 143.871L404.053 150.591C404.107 151.002 404.201 151.407 404.333 151.801L407.292 148.841C407.309 147.368 408.018 146.352 409.44 146.352Z" fill="white"/>
<path d="M414.903 149.984L409.958 154.929C410.59 154.899 411.214 154.778 411.812 154.571L414.525 151.858C414.739 151.254 414.866 150.623 414.903 149.984Z" fill="white"/>
<path d="M407.964 151.801L405.85 153.915C406.143 154.135 406.462 154.318 406.8 154.461L408.95 152.31C408.577 152.245 408.233 152.067 407.964 151.801Z" fill="white"/>
<path d="M407.306 149.9L404.674 152.532C404.845 152.846 405.054 153.138 405.296 153.4L407.536 151.16C407.378 150.759 407.3 150.331 407.306 149.9Z" fill="white"/>
<path d="M414.74 147.587L411.459 150.88C411.375 151.222 411.199 151.536 410.95 151.785C410.701 152.034 410.387 152.21 410.045 152.294L407.598 154.741C408.024 154.847 408.458 154.912 408.897 154.937L414.911 148.92C414.893 148.471 414.836 148.025 414.74 147.587Z" fill="white"/>
<path d="M426.778 148.352L422.337 152.792L423.006 153.618L426.778 149.847V148.352Z" fill="white"/>
<path d="M426.778 150.914L423.485 154.207L423.933 154.758H424.428L426.778 152.409V150.914Z" fill="white"/>
<path d="M416.681 147.142L419.68 144.143L419.526 143.95H418.378L416.681 145.647V147.142Z" fill="white"/>
<path d="M416.681 143.95V144.583L417.314 143.95H416.681Z" fill="white"/>
<path d="M419.671 152.896L417.812 154.758H419.307L419.671 154.392V152.896Z" fill="white"/>
<path d="M426.778 154.758V153.473L425.492 154.758H426.778Z" fill="white"/>
<path d="M423.784 149.275L423.566 149.001L421.189 151.378L421.861 152.204L426.778 147.287V145.792L423.784 148.782V149.275Z" fill="white"/>
<path d="M419.671 150.337L416.681 153.33V154.758H416.745L419.671 151.832V150.337Z" fill="white"/>
<path d="M416.681 149.704L420.816 145.566L420.153 144.734L416.681 148.209V149.704Z" fill="white"/>
<path d="M421.29 146.156L416.681 150.768V152.263L421.956 146.988L421.29 146.156Z" fill="white"/>
<path d="M423.784 147.719L426.778 144.726V143.95H426.058L423.784 146.224V147.719Z" fill="white"/>
<path d="M423.784 143.95V145.16L424.994 143.95H423.784Z" fill="white"/>
<path d="M423.093 148.411L422.429 147.579L420.044 149.967L420.713 150.791L423.093 148.411Z" fill="white"/>
<path d="M437.42 153.072L435.735 154.758H437.23L437.42 154.567V153.072Z" fill="white"/>
<path d="M428.959 150.225L432.218 146.969V145.474L428.959 148.733V150.225Z" fill="white"/>
<path d="M428.959 143.95V145.107L430.115 143.95H428.959Z" fill="white"/>
<path d="M437.42 151.994H435.939L433.173 154.758H434.671L437.42 152.008V151.994Z" fill="white"/>
<path d="M433.38 151.994L430.614 154.758H432.109L434.875 151.994H433.38Z" fill="white"/>
<path d="M428.959 147.666L432.218 144.409V143.95H431.179L428.959 146.171V147.666Z" fill="white"/>
<path d="M432.218 151.995V150.595L428.959 153.851V154.758H429.55L432.313 151.995H432.218Z" fill="white"/>
<path d="M432.218 148.035L428.959 151.292V152.787L432.218 149.528V148.035Z" fill="white"/>
<path d="M442.197 150.857L438.938 154.114V154.758H439.789L442.197 152.353V150.857Z" fill="white"/>
<path d="M442.197 154.758V153.417L440.856 154.758H442.197Z" fill="white"/>
<path d="M438.938 143.95V145.367L440.358 143.95H438.938Z" fill="white"/>
<path d="M438.938 147.929L442.197 144.67V143.95H441.422L438.938 146.434V147.929Z" fill="white"/>
<path d="M438.938 150.488L442.197 147.232V145.736L438.938 148.993V150.488Z" fill="white"/>
<path d="M438.938 151.555V153.05L442.197 149.791V148.296L438.938 151.555Z" fill="white"/>
<path d="M447.517 153.218L445.977 154.758H447.472L447.517 154.713V153.218Z" fill="white"/>
<path d="M447.517 149.511L447.554 149.556L449.942 147.168L449.278 146.336L444.524 151.088V152.583L447.517 149.592V149.511Z" fill="white"/>
<path d="M447.517 150.656L444.524 153.649V154.758H444.91L447.517 152.151V150.656Z" fill="white"/>
<path d="M444.524 147.461L447.666 144.32L447.372 143.95H446.543L444.524 145.966V147.461Z" fill="white"/>
<path d="M451.63 149.275L451.555 149.18L449.178 151.555L449.85 152.381L454.624 147.607V146.111L451.63 149.105V149.275Z" fill="white"/>
<path d="M444.524 150.023L448.805 145.742L448.142 144.913L444.524 148.528V150.023Z" fill="white"/>
<path d="M454.624 151.232L451.474 154.382L451.779 154.758H452.594L454.624 152.728V151.232Z" fill="white"/>
<path d="M450.415 147.758L448.032 150.143L448.702 150.969L451.082 148.589L450.415 147.758Z" fill="white"/>
<path d="M444.524 143.95V144.902L445.479 143.95H444.524Z" fill="white"/>
<path d="M454.624 154.758V153.795L453.658 154.758H454.624Z" fill="white"/>
<path d="M451.63 148.038L454.624 145.048V143.95H454.223L451.63 146.543V148.038Z" fill="white"/>
<path d="M454.624 148.674L450.326 152.969L450.995 153.795L454.624 150.169V148.674Z" fill="white"/>
<path d="M451.63 145.479L453.159 143.95H451.664L451.63 143.984V145.479Z" fill="white"/>
<path d="M461.371 152.165L458.779 154.758H460.274L462.867 152.165H461.371Z" fill="white"/>
<path d="M460.061 152.166V150.914L456.805 154.173V154.758H457.715L460.305 152.166H460.061Z" fill="white"/>
<path d="M463.931 152.165L461.341 154.758H462.836L465.426 152.165H463.931Z" fill="white"/>
<path d="M465.678 152.979L463.9 154.757H465.395L465.678 154.475V152.979Z" fill="white"/>
<path d="M464.516 150.516L464.779 150.253V148.758L463.021 150.516H464.516Z" fill="white"/>
<path d="M463.371 146.543L465.574 144.337V143.95H464.466L461.876 146.543H463.371Z" fill="white"/>
<path d="M461.957 150.516L464.438 148.035H462.942L460.462 150.516H461.957Z" fill="white"/>
<path d="M456.805 143.95V145.426L458.28 143.95H456.805Z" fill="white"/>
<path d="M460.38 148.035L456.805 151.611V153.106L461.878 148.035H460.38Z" fill="white"/>
<path d="M456.805 147.985L460.84 143.95H459.344L456.805 146.49V147.985Z" fill="white"/>
<path d="M465.574 146.543V145.4L464.435 146.543H465.574Z" fill="white"/>
<path d="M456.805 150.547L460.061 147.288V146.543H460.809L463.402 143.95H461.906L456.805 149.052V150.547Z" fill="white"/>
<path d="M479.294 152.165L476.702 154.758H478.197L480.79 152.165H479.294Z" fill="white"/>
<path d="M477.318 150.516L479.801 148.035H478.306L475.822 150.516H477.318Z" fill="white"/>
<path d="M475.612 152.165V150.726L472.356 153.982V154.758H473.076L475.668 152.165H475.612Z" fill="white"/>
<path d="M478.732 146.543L481.126 144.149V143.95H479.829L477.236 146.543H478.732Z" fill="white"/>
<path d="M475.744 148.035L472.356 151.423V152.918L477.239 148.035H475.744Z" fill="white"/>
<path d="M475.612 146.543H476.172L478.765 143.95H477.27L472.356 148.861V150.357L475.612 147.1V146.543Z" fill="white"/>
<path d="M476.735 152.165L474.142 154.758H475.638L478.23 152.165H476.735Z" fill="white"/>
<path d="M472.356 147.797L476.203 143.95H474.708L472.356 146.302V147.797Z" fill="white"/>
<path d="M472.356 143.95V145.238L473.644 143.95H472.356Z" fill="white"/>
<path d="M481.126 146.543V145.213L479.798 146.543H481.126Z" fill="white"/>
<path d="M481.229 152.792L479.264 154.758H480.759L481.229 154.287V152.792Z" fill="white"/>
<path d="M480.33 150.066V148.57L478.384 150.516H479.88L480.33 150.066Z" fill="white"/>
<path d="M492.32 146.825L489.383 149.76V149.824C489.383 151.3 488.764 152.165 487.333 152.165H486.978L484.385 154.758H485.88L492.62 148.018C492.56 147.611 492.46 147.212 492.32 146.825Z" fill="white"/>
<path d="M492.712 149.354C492.712 149.233 492.712 149.119 492.712 149.001L486.955 154.758H487.403C487.778 154.758 488.152 154.735 488.523 154.688L492.648 150.563C492.696 150.162 492.717 149.758 492.712 149.354Z" fill="white"/>
<path d="M482.999 149.956L486.255 146.7V146.543H486.412L488.876 144.079C488.424 143.999 487.966 143.957 487.507 143.953L482.999 148.461V149.956Z" fill="white"/>
<path d="M482.999 151.023V152.518L486.255 149.259V147.764L482.999 151.023Z" fill="white"/>
<path d="M482.999 143.95V144.835L483.886 143.95H482.999Z" fill="white"/>
<path d="M482.999 147.397L486.446 143.95H484.95L482.999 145.902V147.397Z" fill="white"/>
<path d="M489.377 148.702L491.981 146.098C491.804 145.79 491.585 145.507 491.332 145.258L489.092 147.498C489.272 147.874 489.369 148.285 489.377 148.702Z" fill="white"/>
<path d="M488.616 146.899L490.735 144.779C490.421 144.575 490.082 144.412 489.727 144.292L487.473 146.546C487.881 146.547 488.278 146.67 488.616 146.899Z" fill="white"/>
<path d="M486.255 150.325L482.999 153.582V154.758H483.318L486.255 151.82V150.325Z" fill="white"/>
<path d="M492.278 151.986L489.923 154.341C490.463 154.143 490.953 153.829 491.36 153.423C491.766 153.016 492.08 152.526 492.278 151.986Z" fill="white"/>
<path d="M497.945 151.44L495.705 153.68C495.965 153.929 496.258 154.14 496.576 154.308L498.704 152.18C498.371 152.032 498.102 151.77 497.945 151.44Z" fill="white"/>
<path d="M497.724 150.36V149.1L494.717 152.107C494.829 152.465 494.993 152.805 495.201 153.118L497.721 150.598C497.727 150.511 497.724 150.438 497.724 150.36Z" fill="white"/>
<path d="M501.308 149.572L504.564 146.316V144.82L501.308 148.077V149.572Z" fill="white"/>
<path d="M504.564 147.38L501.28 150.653C501.188 151.633 500.616 152.313 499.583 152.35L497.304 154.629C497.706 154.757 498.119 154.844 498.539 154.889L504.553 148.875L504.564 147.38Z" fill="white"/>
<path d="M494.468 146.171L496.688 143.95H495.193L494.468 144.675V146.171Z" fill="white"/>
<path d="M504.564 150.407V149.942L499.561 154.946C500.126 154.948 500.689 154.888 501.241 154.767L504.466 151.541C504.535 151.167 504.568 150.787 504.564 150.407Z" fill="white"/>
<path d="M497.724 146.537L494.468 149.794V150.404C494.468 150.685 494.488 150.966 494.526 151.244L497.727 148.044L497.724 146.537Z" fill="white"/>
<path d="M494.468 148.729L497.724 145.473V143.978L494.468 147.234V148.729Z" fill="white"/>
<path d="M501.308 143.95V144.453L501.811 143.95H501.308Z" fill="white"/>
<path d="M501.308 147.011L504.368 143.95H502.873L501.308 145.518V147.011Z" fill="white"/>
<path d="M509.652 149.973L507.006 152.619C507.172 152.938 507.378 153.234 507.619 153.501L509.876 151.244C509.727 150.837 509.651 150.406 509.652 149.973Z" fill="white"/>
<path d="M513.298 147.822L515.616 145.504C515.407 145.218 515.16 144.962 514.88 144.745L512.808 146.817C513.07 147.094 513.241 147.445 513.298 147.822Z" fill="white"/>
<path d="M506.32 149.354C506.32 149.463 506.32 149.567 506.32 149.671L512.2 143.791C511.996 143.774 511.786 143.763 511.57 143.763C511.273 143.763 510.975 143.78 510.68 143.813L506.384 148.108C506.336 148.522 506.314 148.938 506.32 149.354Z" fill="white"/>
<path d="M506.737 146.703L509.336 144.104C508.731 144.307 508.182 144.647 507.731 145.098C507.28 145.549 506.94 146.098 506.737 146.703Z" fill="white"/>
<path d="M516.465 148.402C516.465 148.364 516.465 148.328 516.465 148.293L516.355 148.402H516.465Z" fill="white"/>
<path d="M509.649 148.85C509.649 147.375 510.181 146.353 511.564 146.353C511.754 146.352 511.942 146.378 512.124 146.428L514.219 144.334C513.871 144.157 513.504 144.023 513.124 143.934L506.404 150.654C506.459 151.066 506.553 151.472 506.684 151.866L509.649 148.92V148.85Z" fill="white"/>
<path d="M515.28 148.396L516.361 147.316C516.291 146.923 516.171 146.541 516.002 146.179L513.782 148.399L515.28 148.396Z" fill="white"/>
<path d="M516.442 150.88L512.407 154.915C513.174 154.853 513.917 154.62 514.583 154.234L515.809 153.005C516.187 152.357 516.404 151.629 516.442 150.88Z" fill="white"/>
<path d="M510.296 151.891L508.188 153.999C508.485 154.217 508.81 154.396 509.154 154.531L511.338 152.344C510.947 152.323 510.577 152.162 510.296 151.891Z" fill="white"/>
<path d="M514.373 150.376L513.158 151.591C513.037 151.788 512.871 151.954 512.673 152.075L509.971 154.777C510.411 154.871 510.858 154.924 511.307 154.934L515.868 150.373L514.373 150.376Z" fill="white"/>
<path d="M521.709 150.815L521.745 150.684L517.671 154.758H519.166L523.109 150.815H521.709Z" fill="white"/>
<path d="M527.015 150.535L524.316 153.234H524.582L524.85 154.192L527.396 151.65L527.015 150.535Z" fill="white"/>
<path d="M528.462 154.76L528.321 154.35L527.914 154.76H528.462Z" fill="white"/>
<path d="M520.604 154.76L520.75 154.24L520.23 154.76H520.604Z" fill="white"/>
<path d="M526.362 148.629L521.756 153.235H523.249L526.743 149.74L526.362 148.629Z" fill="white"/>
<path d="M523.179 148.184L525.436 145.927L525.055 144.812L522.857 147.01L523.179 148.184Z" fill="white"/>
<path d="M523.408 149.018L523.733 150.191L526.091 147.833L525.707 146.719L523.408 149.018Z" fill="white"/>
<path d="M518.951 149.853L524.783 144.02L524.761 143.95H523.358L519.729 147.579L518.951 149.853Z" fill="white"/>
<path d="M522.739 147.128L518.396 151.471L517.618 153.744L522.16 149.206L522.739 147.128Z" fill="white"/>
<path d="M527.667 152.442L525.352 154.758H526.847L528.048 153.557L527.667 152.442Z" fill="white"/>
<path d="M520.972 143.95L520.284 145.958L522.294 143.95H520.972Z" fill="white"/>
<path d="M537.45 146.714L537.82 146.344V144.852L535.955 146.714H537.45Z" fill="white"/>
<path d="M534.505 148.167L531.246 151.423V152.919L534.505 149.662V148.167Z" fill="white"/>
<path d="M534.505 154.758V153.288L533.035 154.758H534.505Z" fill="white"/>
<path d="M531.246 150.359L534.505 147.1V146.714H534.891L537.655 143.95H536.16L531.246 148.864V150.359Z" fill="white"/>
<path d="M529.77 146.714L532.534 143.95H531.038L528.275 146.714H529.77Z" fill="white"/>
<path d="M531.246 146.714V147.8L535.096 143.95H533.6L530.834 146.714H531.246Z" fill="white"/>
<path d="M534.505 150.729L531.246 153.985V154.758H531.968L534.505 152.221V150.729Z" fill="white"/>
<path d="M527.916 146.008L529.974 143.95H528.479L527.916 144.513V146.008Z" fill="white"/>
<path d="M542.715 150.199L539.458 153.456V154.758H539.649L542.715 151.692V150.199Z" fill="white"/>
<path d="M539.458 147.271L542.715 144.012V143.95H541.281L539.458 145.773V147.271Z" fill="white"/>
<path d="M542.715 145.075L539.458 148.334V149.83L542.715 146.573V145.075Z" fill="white"/>
<path d="M539.458 143.95V144.709L540.217 143.95H539.458Z" fill="white"/>
<path d="M542.714 152.759L540.715 154.758H542.21L542.714 154.254V152.759Z" fill="white"/>
<path d="M542.715 147.638L539.458 150.894V152.389L542.715 149.133V147.638Z" fill="white"/>
<path d="M547.953 150.079L545.38 152.652C545.558 152.958 545.774 153.24 546.021 153.492L548.239 151.275C548.063 150.9 547.966 150.493 547.953 150.079Z" fill="white"/>
<path d="M545.041 151.927L547.948 149.021V148.85C547.948 147.374 548.656 146.352 550.084 146.352C550.246 146.352 550.409 146.367 550.568 146.397L552.722 144.247C552.351 144.092 551.965 143.976 551.571 143.902L544.725 150.748C544.791 151.151 544.897 151.546 545.041 151.927Z" fill="white"/>
<path d="M551.991 147.539L554.231 145.299C553.99 145.038 553.717 144.809 553.419 144.616L551.322 146.711C551.618 146.919 551.85 147.206 551.991 147.539Z" fill="white"/>
<path d="M552.24 148.85V149.852L555.191 146.901C555.067 146.548 554.903 146.211 554.701 145.896L552.212 148.385C552.23 148.539 552.239 148.694 552.24 148.85Z" fill="white"/>
<path d="M555.527 150.188L550.801 154.915C551.475 154.867 552.138 154.708 552.761 154.444L555.037 152.168C555.306 151.539 555.472 150.87 555.527 150.188Z" fill="white"/>
<path d="M545.024 146.823L547.707 144.141C547.086 144.355 546.522 144.709 546.057 145.173C545.592 145.638 545.239 146.202 545.024 146.823Z" fill="white"/>
<path d="M548.706 151.888L546.604 153.99C546.905 154.203 547.231 154.379 547.575 154.514L549.756 152.333C549.369 152.294 549.003 152.139 548.706 151.888Z" fill="white"/>
<path d="M544.616 149.354C544.616 149.5 544.616 149.634 544.63 149.777L550.627 143.779C550.451 143.779 550.269 143.76 550.084 143.76C549.751 143.761 549.418 143.783 549.087 143.824L544.68 148.223C544.634 148.598 544.612 148.976 544.616 149.354Z" fill="white"/>
<path d="M555.412 147.741L551.994 151.16C551.899 151.393 551.759 151.606 551.581 151.784C551.403 151.962 551.191 152.102 550.958 152.196L548.39 154.766C548.826 154.863 549.271 154.919 549.717 154.934L555.561 149.091C555.55 148.638 555.5 148.186 555.412 147.741Z" fill="white"/>
<path d="M564.428 147.904L567.419 144.911V143.95H566.887L564.428 146.409V147.904Z" fill="white"/>
<path d="M567.419 148.536L563.062 152.896L563.731 153.719L567.419 150.031V148.536Z" fill="white"/>
<path d="M557.322 143.95V144.768L558.14 143.95H557.322Z" fill="white"/>
<path d="M557.322 149.889L561.542 145.669L560.878 144.838L557.322 148.394V149.889Z" fill="white"/>
<path d="M560.315 153.081L558.638 154.758H560.133L560.315 154.576V153.081Z" fill="white"/>
<path d="M562.015 146.26L557.322 150.953V152.448L562.681 147.091L562.015 146.26Z" fill="white"/>
<path d="M563.818 148.514L563.154 147.683L560.769 150.068L561.438 150.894L563.818 148.514Z" fill="white"/>
<path d="M567.419 151.099L564.21 154.307L564.574 154.758H565.254L567.419 152.594V151.099Z" fill="white"/>
<path d="M567.419 154.758V153.657L566.321 154.758H567.419Z" fill="white"/>
<path d="M564.429 149.276L564.291 149.105L561.914 151.482L562.586 152.308L567.419 147.473V145.978L564.429 148.968V149.276Z" fill="white"/>
<path d="M564.428 143.95V145.345L565.82 143.95H564.428Z" fill="white"/>
<path d="M557.322 147.327L560.405 144.244L560.167 143.95H559.206L557.322 145.832V147.327Z" fill="white"/>
<path d="M560.315 150.521L557.322 153.512V154.758H557.574L560.315 152.017V150.521Z" fill="white"/>
<path d="M579.786 149.653C592.071 149.653 602.03 139.695 602.03 127.41C602.03 115.126 592.071 105.167 579.786 105.167C567.502 105.167 557.543 115.126 557.543 127.41C557.543 139.695 567.502 149.653 579.786 149.653Z" fill="#1B3A3F"/>
<path d="M566.73 127.738C563.107 126.823 558.103 127.553 557.07 133.618C556.347 137.874 555.48 145.255 558.165 146.196C559.355 146.61 563.905 146.196 563.905 146.196L562.617 153.033L571.297 151.253L569.93 144.006C569.93 144.006 578.669 130.754 566.73 127.738Z" fill="#4A798D"/>
<path d="M573.766 127.411C580.699 136.091 573.988 142.385 569.919 144.012C568.497 142.791 567.413 140.683 567.413 140.683C567.212 140.072 569.354 138.527 568.404 136.715C567.746 135.458 566.579 134.926 565.649 135.928C565.49 136.099 565.151 135.968 565.263 135.186C565.445 133.932 565.663 132.062 564.347 130.228C562.986 128.335 561.6 127.408 559.716 128.534C561.701 124.768 570.597 124.446 573.766 127.411Z" fill="#1B3A3F"/>
<path d="M567.038 142.273C567.484 142.273 567.911 142.096 568.226 141.781C568.541 141.466 568.718 141.039 568.718 140.593H568.337C568.337 140.848 568.262 141.097 568.12 141.309C567.979 141.52 567.777 141.686 567.542 141.783C567.307 141.881 567.048 141.906 566.798 141.856C566.548 141.807 566.319 141.684 566.138 141.504C565.958 141.324 565.836 141.094 565.786 140.844C565.736 140.595 565.762 140.336 565.859 140.1C565.957 139.865 566.122 139.664 566.334 139.522C566.545 139.381 566.794 139.305 567.049 139.305V138.924C566.814 138.897 566.575 138.92 566.349 138.991C566.123 139.063 565.915 139.181 565.738 139.339C565.561 139.496 565.42 139.689 565.323 139.906C565.226 140.122 565.176 140.356 565.176 140.593C565.176 140.83 565.226 141.064 565.323 141.281C565.42 141.497 565.561 141.69 565.738 141.848C565.915 142.005 566.123 142.124 566.349 142.195C566.575 142.266 566.814 142.289 567.049 142.262L567.038 142.273Z" fill="white"/>
<path d="M552.576 247.298C552.481 241.343 551.235 223.361 551.235 223.361C551.235 223.361 567.811 188.739 571.221 197.005C571.221 197.005 559.713 237.325 559.352 240.755C558.991 244.185 561.872 250.801 559.976 262.645C559.027 268.567 556.938 288.248 556.938 288.248L553.382 291.524L551.915 286.887C551.915 286.887 552.643 251.498 552.576 247.298Z" fill="#4A798D"/>
<path d="M582.082 157.32C582.082 157.32 593.137 181.448 590.656 188.773C587.453 198.223 576.051 200.852 576.051 200.852L582.082 157.32Z" fill="#EB6029"/>
<path d="M582.082 209.238C582.082 209.238 580.058 223.137 579.358 241.158C578.742 256.947 582.083 257.022 579.229 279.238L578.86 287.461L574.29 289.682C574.29 289.682 573.209 264.683 567.29 205.469C567.282 205.452 578.764 200.936 582.082 209.238Z" fill="#4A798D"/>
<path d="M570.44 150.129C574.144 150.359 580.951 153.461 582.088 157.328C582.852 162.6 578.902 174.99 582.088 192.236C584.653 216.467 584.328 244.82 584.328 244.82L548.936 245.083C548.936 245.083 548.482 218.525 552.114 194.509C554.572 178.247 552.537 162.2 554.819 154.867C555.897 151.406 560.66 150.74 563.051 150.283C565.508 150.064 567.976 150.012 570.44 150.129Z" fill="#EB6029"/>
<path d="M557.417 287.909C557.787 288.01 558.786 294.542 558.19 294.881C557.594 295.22 540.917 295.486 539.951 294.539C539.444 294.041 539.984 291.84 540.334 291.739C544.291 290.612 548.043 288.861 551.448 286.551C551.448 286.551 553.097 287.142 552.904 288.021L552.708 288.393C552.708 288.393 553.746 289.362 554.752 289.27C555.757 289.177 556.482 287.651 557.417 287.909Z" fill="white"/>
<path d="M580.103 289.539C580.041 289.094 579.602 288.537 579.338 288.282C579.075 288.027 578.935 287.828 578.619 286.963C578.339 286.179 577.241 285.944 576.561 285.916H576.513C575.836 285.944 574.744 286.179 574.455 286.963C574.136 287.828 574.018 288.008 573.736 288.282C573.453 288.556 573.033 289.094 572.971 289.539C572.91 289.984 572.487 295.103 573.475 295.184C573.951 295.223 575.25 295.142 576.513 295.167H576.561C577.824 295.142 579.123 295.223 579.599 295.184C580.587 295.1 580.164 289.982 580.103 289.539Z" fill="white"/>
<path d="M507.555 154.153C507.501 154.183 507.453 154.223 507.414 154.271C507.375 154.319 507.346 154.374 507.329 154.434C507.311 154.493 507.306 154.555 507.312 154.617C507.319 154.678 507.338 154.737 507.367 154.792L512.175 163.559C512.235 163.668 512.336 163.75 512.457 163.785C512.577 163.82 512.706 163.806 512.816 163.746C512.871 163.717 512.919 163.676 512.958 163.628C512.997 163.58 513.026 163.524 513.043 163.465C513.061 163.405 513.066 163.343 513.059 163.281C513.053 163.219 513.034 163.159 513.004 163.105L508.196 154.338C508.166 154.284 508.126 154.235 508.078 154.196C508.03 154.157 507.974 154.128 507.914 154.111C507.855 154.093 507.792 154.088 507.731 154.095C507.669 154.101 507.609 154.12 507.555 154.151V154.153Z" fill="white"/>
<path d="M516.434 163.841C516.434 163.841 514.678 160.313 514.524 160.115C514.37 159.916 512.382 158.311 512.312 158.261L510.503 156.937C510.503 156.937 509.968 157.572 510.321 158.213C510.674 158.855 511.626 159.49 511.626 159.49L513.751 163.41L516.434 163.841Z" fill="#4A798D"/>
<path d="M516.434 163.841C516.434 163.841 514.678 160.313 514.524 160.115C514.37 159.916 512.382 158.311 512.312 158.261L510.503 156.937C510.503 156.937 509.968 157.572 510.321 158.213C510.674 158.855 511.626 159.49 511.626 159.49L513.751 163.41L516.434 163.841Z" fill="black" fill-opacity="0.12"/>
<path d="M517.419 165.222C517.419 165.222 514.776 161.498 514.457 161.201C514.138 160.904 509.753 158.342 509.565 158.222C508.51 157.544 507.885 158.667 508.277 159.137C508.605 159.49 508.982 159.793 509.397 160.036C509.397 160.036 508.384 160.837 509.33 161.531C507.975 162.214 508.93 163.211 508.93 163.211C508.93 163.211 508.546 163.914 508.594 164.228C508.641 164.541 509.263 165.53 509.515 165.799C509.767 166.067 514.322 169.509 514.322 169.509L518.5 173.325L521.21 169.156L517.419 165.222Z" fill="#4A798D"/>
<path d="M556.042 152.916C548.127 161.425 545.122 167.938 540.463 175.618L520.387 167.4L515.815 171.782C515.815 171.782 536.398 191.662 542.588 189.543C548.779 187.423 556.247 179.085 556.247 179.085C556.247 179.085 562.194 155.052 556.042 152.916Z" fill="#EB6029"/>
<path d="M449.477 202.521H434.598V207.126H449.477V202.521Z" fill="#EB6029"/>
</g>
</g>
<defs>
<clipPath id="clip0_3610_78123">
<rect width="960" height="360" fill="white"/>
</clipPath>
<clipPath id="clip1_3610_78123">
<rect width="560" height="560" fill="white" transform="translate(200 -100)"/>
</clipPath>
</defs>
</svg>
