<svg width="960" height="360" viewBox="0 0 960 360" fill="none" xmlns="http://www.w3.org/2000/svg">
<g clip-path="url(#clip0_3610_77655)">
<rect width="960" height="360" fill="#4DB6AC"/>
<g clip-path="url(#clip1_3610_77655)">
<path d="M740 -5.15381H220V363.611H740V-5.15381Z" fill="#4DB6AC"/>
<path d="M379.545 320.32C394.467 302.363 489.449 342.329 489.449 342.329C489.449 342.329 533.989 329.947 553.675 355.379C554.943 357.014 555.04 359.813 554.39 363.233C554.319 363.281 348.052 363.064 348.072 363.233C363.535 341.724 376.132 324.42 379.545 320.32Z" fill="#4A798D"/>
<path d="M588.6 161.669C600.961 164.419 610.427 179.283 614.747 204.161C620.164 233.5 609.294 283.12 588.06 345.958C584.455 356.631 464.599 358.227 464.599 358.227C497.782 311.014 540.866 190.764 565.913 177.038C573.507 172.586 578.087 159.33 588.6 161.669Z" fill="#A94442"/>
<path d="M669.416 346.75C669.416 351.122 667.681 355.315 664.593 358.407C661.505 361.499 657.317 363.236 652.95 363.236H606.865C602.497 363.236 598.309 361.499 595.221 358.407C592.133 355.315 590.398 351.122 590.398 346.75C590.398 325.873 614.088 242.519 621.221 219.45C623.908 210.756 628.588 202.964 637.688 202.964H664.028C668.395 202.964 672.583 204.701 675.671 207.792C678.76 210.884 680.494 215.077 680.494 219.45L669.416 346.75Z" fill="#EB6029"/>
<path d="M669.416 346.75C669.416 351.122 667.682 355.315 664.593 358.407C661.505 361.499 657.317 363.236 652.95 363.236H606.865C602.497 363.236 598.309 361.499 595.221 358.407C592.133 355.315 590.398 351.122 590.398 346.75C590.398 325.873 614.088 242.519 621.221 219.45C623.908 210.756 628.588 202.964 637.688 202.964H664.028C668.395 202.964 672.583 204.701 675.672 207.792C678.76 210.884 680.495 215.077 680.495 219.45L669.416 346.75Z" fill="#E34419"/>
<path d="M399.066 330.576C400.31 327.56 402.42 324.981 405.129 323.166C407.837 321.351 411.023 320.382 414.283 320.381H671.078V363.715C671.1 363.635 397.883 363.635 397.82 363.715V336.867C397.819 334.708 398.242 332.571 399.066 330.576Z" fill="#EB6029"/>
<path d="M614.936 163.335C651.599 163.335 681.32 133.578 681.32 96.8724C681.32 60.1663 651.599 30.4102 614.936 30.4102C578.272 30.4102 548.551 60.1663 548.551 96.8724C548.551 133.578 578.272 163.335 614.936 163.335Z" fill="#1B3A3F"/>
<path d="M611.144 106.714C611.144 124.033 597.002 139.877 579.554 139.877C562.106 139.877 547.962 124.042 547.962 106.714C547.962 89.3863 562.116 75.3516 579.556 75.3516C596.995 75.3516 611.144 89.3928 611.144 106.714Z" fill="#1B3A3F"/>
<path d="M592.771 167.836C592.771 171.105 562.173 187.276 562.812 180.489L567.299 141.501L588.316 129.987C588.316 129.987 591.945 158.816 592.771 167.836Z" fill="#4A798D"/>
<path d="M586.047 135.955L567.219 140.783L565.178 159.939C580.288 158.169 586.047 141.972 586.047 135.955Z" fill="#4A798D"/>
<path d="M586.047 135.955L567.219 140.783L565.178 159.939C580.288 158.169 586.047 141.972 586.047 135.955Z" fill="#4A798D"/>
<path d="M586.047 135.955L567.219 140.783L565.178 159.939C580.288 158.169 586.047 141.972 586.047 135.955Z" fill="black" fill-opacity="0.12"/>
<path d="M544.073 134.604C542.168 134.604 540.468 129.33 539.774 124.124C539.055 118.723 539.354 113.115 541.319 112.844C541.367 112.841 541.414 112.841 541.462 112.844C543.367 112.844 545.067 118.118 545.761 123.324C546.136 126.144 546.22 128.847 545.993 130.916C545.739 133.233 545.141 134.469 544.216 134.593C544.169 134.6 544.121 134.603 544.073 134.604ZM541.46 113.686H541.43C541.154 113.723 540.624 114.382 540.379 116.619C540.162 118.625 540.24 121.25 540.608 124.009C541.414 130.048 543.169 133.758 544.075 133.758H544.105C544.381 133.721 544.911 133.061 545.156 130.825C545.373 128.818 545.295 126.194 544.927 123.434C544.118 117.395 542.363 113.686 541.46 113.686Z" fill="white"/>
<path d="M545 112.278C545 112.278 554.716 111.309 556.59 111.489C559.712 111.792 560.381 113.818 560.862 114.92C561.027 115.298 548.179 116.556 546.311 115.881C544.443 115.207 545 112.278 545 112.278Z" fill="#1B3A3F"/>
<path d="M582.148 120.068C577.164 104.387 571.16 89.5557 560.093 89.5557C547.063 89.5557 544.926 108.176 546.114 115.569C546.114 115.569 546.432 128.41 546.432 129.22C546.432 131.423 546.519 134.061 546.762 136.827C546.762 136.827 548.868 155.361 553.35 155.677C559.495 156.111 574.038 152.538 581.682 146.584C587.519 142.042 588.615 138.263 588.615 134.183C588.615 133.59 585.276 129.248 583.729 124.777C583.151 123.115 582.594 121.475 582.148 120.068Z" fill="#4A798D"/>
<path d="M548.25 112.037C548.25 112.037 557.965 111.068 559.839 111.25C562.961 111.551 563.631 113.577 564.112 114.679C564.279 115.057 551.43 116.315 549.561 115.64C547.691 114.966 548.25 112.037 548.25 112.037Z" fill="#1B3A3F"/>
<path d="M546.113 115.569L541.522 134.519L548.315 137.51L546.113 115.569Z" fill="#4A798D"/>
<path d="M552.15 134.664C550.243 134.664 548.545 129.391 547.851 124.185C547.132 118.783 547.431 113.178 549.396 112.905C549.444 112.902 549.492 112.902 549.539 112.905C551.444 112.905 553.145 118.178 553.838 123.384C554.215 126.204 554.297 128.905 554.07 130.977C553.816 133.293 553.218 134.53 552.293 134.653C552.246 134.66 552.198 134.664 552.15 134.664ZM549.537 113.747H549.505C549.232 113.783 548.699 114.443 548.456 116.679C548.239 118.686 548.317 121.311 548.686 124.07C549.492 130.109 551.247 133.818 552.152 133.818H552.185C552.46 133.781 552.989 133.122 553.233 130.885C553.45 128.879 553.372 126.254 553.004 123.495C552.185 117.456 550.432 113.747 549.526 113.747H549.537Z" fill="white"/>
<path d="M547.622 121.497C547.447 121.198 547.198 120.948 546.9 120.771C546.602 120.595 546.263 120.497 545.917 120.488C545.519 120.491 545.132 120.619 544.812 120.855L544.32 120.169C544.783 119.83 545.342 119.646 545.917 119.645C546.404 119.656 546.881 119.79 547.303 120.034C547.725 120.279 548.078 120.626 548.33 121.044L547.622 121.497Z" fill="white"/>
<path d="M583.509 120.772L553.214 121.789L553.242 122.632L583.537 121.616L583.509 120.772Z" fill="white"/>
<path d="M585.668 114.671C586.752 113.358 589.43 112.397 592.344 116.024C595.258 119.651 593.312 133.278 586.041 133.278C578.77 133.278 582.7 118.252 585.668 114.671Z" fill="#4A798D"/>
<path d="M363.849 317.415C363.849 320.072 366.001 321.723 368.655 321.723H477.318C479.972 321.723 482.124 320.072 482.124 317.415H363.849Z" fill="#CCCCCC"/>
<path d="M366.8 317.391L378.355 313.031H469.795L482.188 317.391H366.8Z" fill="#E1E1E1"/>
<path d="M325.64 223.133L364.287 319.402C365.017 321.209 367.771 319.821 367.771 319.821L326.604 218.012C325.969 218.682 325.541 219.522 325.37 220.43C325.199 221.339 325.293 222.277 325.64 223.133Z" fill="#CCCCCC"/>
<path d="M326.607 217.964L345.197 234.059L378.355 313.031L366.798 317.415L326.607 217.964Z" fill="#1B3A3F"/>
<path d="M391.041 316.045H383.865L388.565 313.038H394.317L391.041 316.045Z" fill="#1B3A3F"/>
<path d="M399.09 316.045H391.916L395.019 313.038H400.774L399.09 316.045Z" fill="#1B3A3F"/>
<path d="M407.142 316.045H399.966L401.476 313.038H407.228L407.142 316.045Z" fill="#1B3A3F"/>
<path d="M415.193 316.045H408.017L407.93 313.038H413.685L415.193 316.045Z" fill="#1B3A3F"/>
<path d="M423.244 316.045H416.068L414.387 313.038H420.139L423.244 316.045Z" fill="#1B3A3F"/>
<path d="M431.296 316.045H424.12L420.841 313.038H426.596L431.296 316.045Z" fill="#1B3A3F"/>
<path d="M375.415 318.86H371.626C371.366 318.86 371.155 319.071 371.155 319.331V320.211C371.155 320.471 371.366 320.682 371.626 320.682H375.415C375.675 320.682 375.885 320.471 375.885 320.211V319.331C375.885 319.071 375.675 318.86 375.415 318.86Z" fill="#1B3A3F"/>
<path d="M381.963 318.86H378.173C377.914 318.86 377.703 319.071 377.703 319.331V320.211C377.703 320.471 377.914 320.682 378.173 320.682H381.963C382.222 320.682 382.433 320.471 382.433 320.211V319.331C382.433 319.071 382.222 318.86 381.963 318.86Z" fill="#1B3A3F"/>
<path d="M470.954 294.597C470.954 294.597 455.319 289.203 451.887 288.741C448.455 288.278 426.618 282.216 424.486 281.986C422.354 281.756 409.172 279.383 408.283 279.578C407.395 279.773 398.317 282.636 398.317 282.636L391.788 286.493C391.788 286.493 392.896 289.732 396.629 288.788C399.166 288.137 400.297 287.14 400.297 287.14L408.747 285.953L414.086 287.122C414.086 287.122 406.147 289.15 405.501 290.031C404.856 290.912 399.612 299.829 399.612 299.829L396.263 305.634C396.263 305.634 397.621 307.658 399.911 306.472C402.201 305.285 404.661 301.005 404.661 301.005L409.258 296.127L416.842 294.634C416.842 294.634 410.95 298.446 409.887 299.741C408.823 301.036 406.481 306.077 406.156 306.934C405.831 307.79 406.459 312.242 406.459 312.242C406.459 312.242 409.835 313.741 411.299 308.053C411.889 306.125 414.272 303.801 414.272 303.801L420.867 300.903L422.115 301.337C422.115 301.337 420.635 305.869 419.84 307.337C419.045 308.806 418.757 313.125 418.757 313.125C418.757 313.125 420.707 317.289 422.109 314.305C423.511 311.32 426.327 307.656 427.718 305.504C434.959 308.209 448.026 306.144 448.026 306.144L461.421 308.747L470.954 294.597Z" fill="#4A798D"/>
<path d="M458.487 289.836V310.428L481.153 320.094H497.522L541.174 283.535L458.487 289.836Z" fill="#A94442"/>
<path d="M387.009 155.101C387.009 131.469 367.875 112.313 344.271 112.313C320.668 112.313 301.536 131.469 301.536 155.101C301.532 162.374 303.382 169.529 306.911 175.887C310.44 182.246 315.53 187.598 321.701 191.437C322.785 186.168 324.195 181.923 325.53 179.999C331.072 172.007 339.6 167.213 341.609 167.589C341.609 167.589 344.228 166.812 347.745 168.84C353.95 172.415 360.745 184.645 361.713 190.532C361.778 190.934 361.964 192.218 362.218 193.944C369.622 190.514 375.891 185.034 380.284 178.15C384.677 171.267 387.011 163.269 387.009 155.101Z" fill="#349E92"/>
<path d="M347.747 168.84C344.23 166.814 341.611 167.588 341.611 167.588C339.602 167.213 331.074 172.009 325.532 179.996C324.197 181.92 322.789 186.165 321.703 191.434C327.722 195.178 334.574 197.367 341.646 197.804C348.718 198.24 355.788 196.912 362.22 193.938C361.967 192.202 361.787 190.925 361.715 190.525C360.753 184.645 353.952 172.415 347.747 168.84Z" fill="white"/>
<path d="M357.367 139.252C359.624 138.029 361.098 130.879 360.06 129.363C359.423 128.432 356.483 131.098 355.692 131.027C355.766 130.593 358.292 128.311 358.626 127.339C355.809 123.521 337.849 126.038 335.009 134.009C333.863 137.265 352.331 141.979 357.367 139.252Z" fill="#1B3A3F"/>
<path d="M331.635 143.107C331.635 150.552 337.533 157.361 345.032 157.361C352.531 157.361 358.61 150.552 358.61 143.107C358.61 135.662 352.531 129.627 345.032 129.627C341.071 129.627 337.689 131.311 335.206 133.996C332.162 134.222 331.635 139.593 331.635 143.107Z" fill="#1B3A3F"/>
<path d="M339.353 169.378C339.353 170.784 352.505 177.734 352.23 174.816L350.301 158.059L341.268 153.111C341.268 153.111 339.706 165.5 339.353 169.378Z" fill="#C9AFAD"/>
<path d="M360.222 155.087C359.826 155.035 359.572 154.504 359.46 153.506C359.368 152.421 359.401 151.329 359.559 150.252C359.858 148.013 360.588 145.747 361.407 145.747H361.468C362.313 145.859 362.441 148.269 362.131 150.59C361.832 152.829 361.102 155.096 360.283 155.096L360.222 155.087ZM359.917 150.291C359.763 151.342 359.73 152.408 359.819 153.467C359.925 154.428 360.153 154.712 360.27 154.727H360.283C360.671 154.727 361.427 153.133 361.771 150.536C361.925 149.485 361.958 148.419 361.869 147.36C361.763 146.4 361.535 146.115 361.418 146.1H361.405C361.017 146.105 360.263 147.697 359.917 150.293V150.291Z" fill="white"/>
<path d="M359.887 145.497C359.887 145.497 355.711 145.081 354.903 145.159C353.562 145.289 353.274 146.159 353.066 146.634C352.994 146.796 358.517 147.337 359.321 147.046C360.125 146.755 359.887 145.497 359.887 145.497Z" fill="#1B3A3F"/>
<path d="M343.918 148.846C346.059 142.107 348.642 135.731 353.397 135.731C358.998 135.731 359.919 143.736 359.406 146.912C359.406 146.912 359.269 152.43 359.269 152.779C359.269 153.727 359.232 154.859 359.128 156.048C359.128 156.048 358.223 164.014 356.296 164.15C353.655 164.337 347.413 162.801 344.12 160.246C341.611 158.293 341.143 156.669 341.143 154.916C341.143 154.662 342.577 152.794 343.242 150.872C343.487 150.157 343.717 149.447 343.918 148.846Z" fill="#E5C7C5"/>
<path d="M358.491 145.395C358.491 145.395 354.316 144.979 353.508 145.057C352.167 145.187 351.879 146.057 351.671 146.53C351.599 146.692 357.122 147.232 357.926 146.942C358.73 146.651 358.491 145.395 358.491 145.395Z" fill="#1B3A3F"/>
<path d="M359.406 146.912L361.379 155.057L358.459 156.343L359.406 146.912Z" fill="#E5C7C5"/>
<path d="M356.753 155.115C356.357 155.061 356.103 154.53 355.991 153.534C355.899 152.449 355.933 151.358 356.09 150.28C356.389 148.042 357.12 145.775 357.939 145.775H357.999C358.844 145.888 358.972 148.298 358.662 150.619C358.363 152.857 357.633 155.124 356.814 155.124L356.753 155.115ZM356.45 150.315C356.295 151.366 356.262 152.432 356.35 153.491C356.457 154.452 356.684 154.736 356.801 154.751H356.814C357.202 154.751 357.958 153.157 358.303 150.56C358.457 149.509 358.49 148.443 358.4 147.384C358.296 146.423 358.066 146.139 357.949 146.124H357.936C357.551 146.131 356.797 147.725 356.45 150.315Z" fill="white"/>
<path d="M358.758 149.46C358.832 149.331 358.939 149.223 359.067 149.147C359.195 149.071 359.341 149.03 359.49 149.026C359.661 149.028 359.827 149.083 359.964 149.185L360.181 148.89C359.981 148.747 359.74 148.671 359.494 148.673C359.285 148.678 359.08 148.735 358.898 148.84C358.717 148.945 358.565 149.094 358.456 149.274L358.758 149.46Z" fill="white"/>
<path d="M343.334 149.148L343.322 149.51L356.342 149.947L356.355 149.585L343.334 149.148Z" fill="white"/>
<path d="M342.406 146.526C341.938 145.962 340.79 145.55 339.537 147.107C338.285 148.665 339.121 154.524 342.246 154.524C345.37 154.524 343.678 148.066 342.406 146.526Z" fill="#E5C7C5"/>
<path d="M335.143 134.68C335.932 132.407 337.362 130.413 339.26 128.938C340.969 127.63 342.903 126.645 344.965 126.031C347.317 125.304 349.761 124.915 352.223 124.877V124.515C349.725 124.552 347.244 124.945 344.856 125.682C342.75 126.309 340.776 127.314 339.03 128.649C337.073 130.166 335.597 132.22 334.783 134.56L335.143 134.68Z" fill="#1B3A3F"/>
<path d="M330.743 134.235C333.089 133.713 335.537 133.884 337.789 134.727C339.654 135.408 339.825 135.085 337.919 134.389C335.601 133.52 333.081 133.344 330.665 133.881L330.743 134.235Z" fill="#1B3A3F"/>
<path d="M445.487 105.573C445.487 100.16 444.165 94.8286 441.634 90.0448C439.104 85.2609 435.443 81.1696 430.97 78.1279C426.498 75.0861 421.349 73.1863 415.975 72.5941C410.6 72.002 405.163 72.7355 400.137 74.7307C395.11 76.7259 390.648 79.9221 387.139 84.0406C383.63 88.159 381.181 93.0746 380.006 98.3584C378.83 103.642 378.964 109.134 380.395 114.354C381.827 119.574 384.512 124.364 388.218 128.306C389.932 126.115 391.823 124.068 393.871 122.185C395.184 120.883 403.174 116.957 407.807 116.501C407.939 116.488 416.085 117.239 416.274 117.293C418.393 117.905 424.631 121.096 427.58 124.25C427.58 124.25 430.167 126.111 431.85 132.397C436.077 129.322 439.517 125.288 441.887 120.625C444.257 115.963 445.491 110.805 445.487 105.573Z" fill="#349E92"/>
<path d="M427.582 124.25C424.633 121.096 418.395 117.903 416.276 117.293C416.088 117.239 407.939 116.489 407.809 116.502C403.176 116.955 395.186 120.875 393.873 122.185C391.825 124.068 389.935 126.115 388.22 128.306C393.748 134.19 401.23 137.851 409.263 138.605C417.296 139.358 425.327 137.151 431.85 132.398C430.167 126.111 427.582 124.25 427.582 124.25Z" fill="#4A798D"/>
<path d="M411.852 108.194C420.666 108.194 427.811 101.04 427.811 92.2152C427.811 83.3906 420.666 76.2368 411.852 76.2368C403.037 76.2368 395.892 83.3906 395.892 92.2152C395.892 101.04 403.037 108.194 411.852 108.194Z" fill="white"/>
<path d="M408.381 116.532L413.373 120.571L417.645 117.803L416.87 107.382L409.128 105.957L408.381 116.532Z" fill="#BA9F8E"/>
<path d="M413.28 120.927C409.698 120.747 407.59 117.517 407.412 116.564C407.428 116.428 413.15 115.276 413.15 115.276L418.506 118.185C417.886 119.393 415.979 121.063 413.28 120.927Z" fill="#BA9F8E"/>
<path d="M403.413 95.4345C403.413 100.957 407.924 106.009 413.486 106.009C419.047 106.009 423.558 100.957 423.558 95.4345C423.558 92.7593 422.497 90.1937 420.608 88.302C418.718 86.4104 416.156 85.3477 413.483 85.3477C410.811 85.3477 408.249 86.4104 406.359 88.302C404.47 90.1937 403.408 92.7593 403.408 95.4345H403.413Z" fill="white"/>
<path d="M422.547 94.6816C423.741 96.6618 424.614 98.8197 425.131 101.074C424.424 102.135 423.592 103.107 422.655 103.97C422.488 100.94 422.508 97.1285 422.547 94.6816Z" fill="#E1E1E1"/>
<path d="M407.666 97.332C408.381 92.5792 412.448 89.6465 416.792 89.6465C421.136 89.6465 423.292 92.9719 423.292 97.332C423.292 97.332 423.259 102.898 423.259 103.167C423.259 106.421 420.443 112.571 417.301 112.571C413.681 112.571 407.51 107.746 407.51 104.605C407.514 104.328 407.395 99.1216 407.666 97.332Z" fill="#BA9F8E"/>
<path d="M423.266 102.649C422.88 104.326 422.156 106.911 421.301 107.167C420.022 107.551 420.354 105.562 417.637 105.597C414.92 105.631 414.658 107.438 413.124 107.352C410.03 107.176 407.49 101.861 407.49 101.861C407.49 101.861 407.395 104.096 407.588 105.217C408.385 107.82 410.008 109.909 410.937 110.779C412.11 111.879 415.656 113.742 417.262 113.742C418.185 113.742 419.537 112.571 420.625 111.247C421.422 110.278 422.698 107.317 422.973 106.091C423.19 104.957 423.288 103.803 423.266 102.649Z" fill="#1B3A3F"/>
<path d="M419.078 105.343H416.213L417.914 106.001L419.078 105.343Z" fill="#A48C7D"/>
<path d="M415.867 97.1871C415.867 97.1871 412.63 96.8639 412.006 96.9246C410.966 97.0265 410.743 97.7012 410.582 98.0678C410.526 98.1936 414.809 98.6122 415.431 98.3888C416.053 98.1654 415.867 97.1871 415.867 97.1871Z" fill="#1B3A3F"/>
<path d="M419.101 97.1871C419.101 97.1871 422.338 96.8639 422.965 96.9246C423.075 96.9349 423.184 96.9538 423.292 96.981C423.638 97.0569 423.638 98.2131 423.359 98.25C422.059 98.3975 419.962 98.5407 419.539 98.3888C418.917 98.161 419.101 97.1871 419.101 97.1871Z" fill="#1B3A3F"/>
<path d="M418.733 101.796C418.604 100.885 418.777 99.9558 419.225 99.152C419.412 98.7992 419.676 98.4934 419.997 98.2575C420.319 98.0215 420.69 97.8616 421.082 97.7897C421.197 97.7722 421.313 97.7635 421.429 97.7637C422.861 97.7637 424.115 99.1238 424.345 100.926C424.474 101.838 424.302 102.767 423.853 103.571C423.666 103.923 423.402 104.229 423.081 104.465C422.759 104.701 422.388 104.861 421.996 104.933C421.882 104.95 421.766 104.959 421.65 104.959C420.217 104.959 418.963 103.599 418.733 101.796ZM421.117 98.0804C420.764 98.1467 420.43 98.292 420.142 98.5053C419.853 98.7187 419.616 98.9946 419.448 99.3125C419.035 100.056 418.876 100.915 418.995 101.757C419.212 103.417 420.35 104.668 421.65 104.668C421.753 104.668 421.857 104.66 421.959 104.644C422.312 104.578 422.645 104.433 422.934 104.22C423.223 104.007 423.46 103.732 423.628 103.414C424.042 102.671 424.201 101.812 424.081 100.97C423.864 99.3103 422.726 98.0587 421.426 98.0587C421.323 98.0581 421.221 98.0653 421.119 98.0804H421.117Z" fill="white"/>
<path d="M413.427 104.933C411.88 104.692 410.827 102.896 411.078 100.926C411.31 99.1238 412.563 97.7637 413.995 97.7637C414.111 97.7635 414.227 97.7722 414.341 97.7897C414.733 97.8619 415.104 98.022 415.425 98.2579C415.746 98.4938 416.01 98.7995 416.196 99.152C416.644 99.9558 416.817 100.885 416.688 101.796C416.456 103.599 415.204 104.959 413.772 104.959C413.656 104.959 413.541 104.95 413.427 104.933ZM411.341 100.968C411.109 102.777 412.06 104.425 413.462 104.644C413.564 104.66 413.668 104.668 413.772 104.668C415.072 104.668 416.213 103.417 416.426 101.757C416.545 100.915 416.386 100.056 415.973 99.3125C415.805 98.9943 415.568 98.7182 415.279 98.5049C414.989 98.2915 414.656 98.1464 414.302 98.0804C414.2 98.0645 414.096 98.0565 413.993 98.0565C412.695 98.0565 411.553 99.3082 411.341 100.968Z" fill="white"/>
<path d="M418.753 101.634L418.958 101.45C418.603 100.972 418.176 100.721 417.726 100.721C417.275 100.721 416.848 100.972 416.491 101.45L416.696 101.634C417 101.226 417.346 101.011 417.726 101.011C418.105 101.011 418.451 101.226 418.753 101.634Z" fill="white"/>
<path d="M416.213 83.584C416.213 83.584 421.779 91.7727 420.59 91.1133C419.387 90.4851 418.046 90.1681 416.69 90.1914C415.08 90.1914 413.622 90.5949 412.573 91.2478C411.525 91.9007 416.213 83.584 416.213 83.584Z" fill="#1B3A3F"/>
<path d="M416.391 88.0587C413.627 90.0079 411.351 92.5712 409.741 95.548C408.132 98.5248 407.232 101.834 407.113 105.217C403.86 102.892 401.597 99.4294 400.771 95.5142C399.944 91.599 400.615 87.5158 402.65 84.0717C403.013 84.0543 403.378 84.0449 403.746 84.0435C408.275 84.0363 412.694 85.4395 416.391 88.0587Z" fill="white"/>
<path d="M423.909 97.3346C422.304 93.6086 419.702 90.3988 416.391 88.0591C415.091 87.1415 413.336 86.4777 411.841 85.8551C409.241 84.7705 406.739 84.0482 403.744 84.0482C403.377 84.0482 403.012 84.0576 402.648 84.0764C407.681 78.8703 416.861 81.4907 420.237 83.905C427.289 88.9376 424.317 98.302 423.909 97.3346Z" fill="white"/>
<path d="M416.391 88.0587C413.7 86.1627 410.617 84.8977 407.371 84.3573C404.125 83.8169 400.8 84.0151 397.641 84.9372C397.563 85.0646 397.497 85.1989 397.444 85.3385L397.615 85.2886C400.723 84.3621 403.999 84.1484 407.201 84.6632C410.403 85.1781 413.448 86.4083 416.109 88.2626L416.391 88.0587Z" fill="#E1E1E1"/>
<path d="M469.275 219.126C469.275 192.714 447.888 171.302 421.507 171.302C395.125 171.302 373.738 192.714 373.738 219.126C373.722 231.308 378.366 243.034 386.716 251.894C389.189 248.736 391.915 245.784 394.867 243.07C396.761 241.181 408.279 235.532 414.957 234.879C415.145 234.859 426.893 235.942 427.164 236.02C430.219 236.901 439.21 241.502 443.461 246.048C443.461 246.048 447.19 248.732 449.617 257.792C455.71 253.359 460.668 247.544 464.085 240.823C467.502 234.103 469.28 226.667 469.275 219.126Z" fill="#349E92"/>
<path d="M397.53 252.686C395.779 230.879 410.114 198.879 410.114 198.879C410.114 198.879 436.064 198.419 436.222 204.912C436.766 227.387 442.995 241.118 446.56 250.916C449.233 258.27 398.135 260.222 397.53 252.686Z" fill="white"/>
<path d="M395.565 251.717C395.37 245.287 396.659 237.378 399.402 228.209C404.078 212.575 411.258 198.888 411.562 198.313L411.585 198.218L411.204 198.122C410.899 198.699 403.703 212.419 399.014 228.092C396.258 237.302 394.963 245.255 395.16 251.736C395.409 259.86 395.81 259.71 395.565 251.717Z" fill="white"/>
<path d="M443.463 244.695C440.213 240.994 434.038 236.946 430.983 236.066C430.713 235.988 415.149 234.86 414.95 234.879C408.272 235.53 396.75 241.183 394.861 243.07C391.908 245.784 389.182 248.736 386.71 251.894C394.679 260.376 405.465 265.656 417.046 266.742C428.626 267.828 440.204 264.645 449.608 257.792C447.192 248.734 445.647 247.187 443.463 244.695Z" fill="#E34419"/>
<path d="M416.131 234.923L423.326 240.747L429.445 236.61L428.368 221.732L417.21 219.68L416.131 234.923Z" fill="#DBB6A8"/>
<path d="M423.396 241.235C418.341 241.235 414.707 236.971 414.632 235.478C414.619 235.227 422.798 233.109 422.798 233.109L430.981 236.066C430.905 237.686 428.065 241.235 423.396 241.235Z" fill="#DBB6A8"/>
<path d="M408.97 204.498C408.97 212.459 415.47 219.743 423.487 219.743C431.504 219.743 438.004 212.461 438.004 204.498C438.004 196.534 431.504 190.081 423.487 190.081C415.47 190.081 408.97 196.534 408.97 204.498Z" fill="white"/>
<path d="M414.844 222.55C414.482 224.823 416.677 232.634 416.131 234.914C412.935 248.253 411.581 258.867 415.643 264.513C402.786 261.578 398.273 254.35 397.842 241.224C402.201 227.131 415.767 220.567 414.844 222.55Z" fill="white"/>
<path d="M436.131 208.806C436.548 208.546 437.049 208.459 437.528 208.563C438.008 208.667 438.428 208.954 438.699 209.363C439.819 210.86 439.074 216.465 436.272 216.465C433.471 216.465 436.131 208.806 436.131 208.806Z" fill="#CA706F"/>
<path d="M413.943 208.706C413.421 208.075 412.136 207.621 410.736 209.357C409.336 211.092 410.27 217.645 413.769 217.645C417.269 217.645 415.366 210.428 413.943 208.706Z" fill="#F9CFBF"/>
<path d="M415.1 207.248C416.131 200.398 421.994 196.836 428.253 196.836C434.513 196.836 437.633 200.957 437.633 207.248C437.633 207.248 437.585 215.274 437.585 215.66C437.585 220.363 433.518 229.218 428.997 229.218C423.779 229.218 414.881 222.263 414.881 217.736C414.881 217.344 414.71 209.84 415.1 207.248Z" fill="#F9CFBF"/>
<path d="M426.93 207.036C426.93 207.036 422.263 206.569 421.361 206.658C419.862 206.804 419.539 207.778 419.31 208.307C419.229 208.489 425.402 209.092 426.299 208.769C427.196 208.446 426.93 207.036 426.93 207.036Z" fill="#1B3A3F"/>
<path d="M431.586 207.036C431.586 207.036 436.253 206.569 437.154 206.658C437.313 206.673 437.471 206.7 437.626 206.739C438.125 206.847 438.125 208.515 437.722 208.567C435.856 208.784 432.823 208.986 432.216 208.767C431.319 208.45 431.586 207.036 431.586 207.036Z" fill="#1B3A3F"/>
<path d="M431.551 218.797H427.424L429.874 219.741L431.551 218.797Z" fill="#DBB6A8"/>
<path d="M430.784 213.684C430.599 212.37 430.848 211.031 431.495 209.873C432.145 208.775 433.083 208.077 434.171 207.91C434.336 207.884 434.504 207.871 434.671 207.871C436.736 207.871 438.543 209.823 438.874 212.426C439.06 213.74 438.81 215.079 438.164 216.237C437.514 217.335 436.573 218.033 435.488 218.203C435.322 218.228 435.155 218.241 434.987 218.242C432.925 218.242 431.118 216.283 430.784 213.684ZM434.225 208.326C433.252 208.478 432.396 209.107 431.82 210.101C431.224 211.173 430.995 212.411 431.17 213.626C431.475 216.012 433.12 217.821 434.996 217.821C435.146 217.821 435.295 217.809 435.442 217.786C436.415 217.634 437.271 217.005 437.85 216.012C438.446 214.94 438.674 213.701 438.5 212.487C438.194 210.101 436.55 208.291 434.675 208.291C434.524 208.291 434.372 208.303 434.223 208.326H434.225Z" fill="white"/>
<path d="M423.134 218.211C420.904 217.866 419.385 215.274 419.747 212.437C420.081 209.834 421.888 207.881 423.95 207.881C424.118 207.882 424.285 207.895 424.451 207.92C425.534 208.087 426.488 208.788 427.127 209.884C427.773 211.042 428.023 212.381 427.837 213.695C427.504 216.298 425.697 218.25 423.634 218.25C423.466 218.25 423.299 218.237 423.134 218.211ZM420.128 212.495C419.795 215.098 421.168 217.484 423.188 217.795C423.335 217.818 423.485 217.829 423.634 217.829C425.508 217.829 427.153 216.025 427.46 213.634C427.635 212.42 427.406 211.181 426.81 210.109C426.232 209.116 425.378 208.487 424.405 208.335C424.258 208.312 424.108 208.3 423.959 208.3C422.078 208.291 420.434 210.094 420.128 212.487V212.495Z" fill="white"/>
<path d="M430.817 213.439L431.114 213.172C430.602 212.485 429.987 212.12 429.335 212.12C428.683 212.12 428.069 212.485 427.556 213.172L427.853 213.439C428.286 212.853 428.802 212.543 429.335 212.543C429.868 212.543 430.383 212.86 430.817 213.439Z" fill="white"/>
</g>
</g>
<defs>
<clipPath id="clip0_3610_77655">
<rect width="960" height="360" fill="white"/>
</clipPath>
<clipPath id="clip1_3610_77655">
<rect width="520" height="368.765" fill="white" transform="translate(220 -5)"/>
</clipPath>
</defs>
</svg>
