<svg width="170" height="88" viewBox="0 0 170 88" fill="none" xmlns="http://www.w3.org/2000/svg">
<g id="Logo_vilnius_university 1" clip-path="url(#clip0_3610_77844)">
<g id="g8">
<g id="g10">
<path id="path12" d="M91.8643 88.0005H92.7809V0.00263214H91.8643V88.0005Z" fill="#740134"/>
<path id="path14" fill-rule="evenodd" clip-rule="evenodd" d="M3.55531 55.1837L7.62588 54.3674L7.46868 53.5842L3.39847 54.4003C2.64115 54.5524 1.90745 54.1536 1.74812 53.3622C1.5877 52.5615 2.13126 51.9242 2.87103 51.7756L6.94196 50.9585L6.78441 50.1761L2.71383 50.9925C1.57803 51.2206 0.787045 52.2303 1.04271 53.5037C1.29837 54.7773 2.4195 55.4118 3.55531 55.1837Z" fill="#740134"/>
<path id="path16" fill-rule="evenodd" clip-rule="evenodd" d="M9.36108 59.5583L4.90094 61.1868L8.41363 56.9622L8.10962 56.129L2.33893 58.2356L2.6125 58.9854L7.07265 57.3583L3.55995 61.5825L3.86396 62.415L9.635 60.3095L9.36108 59.5583Z" fill="#740134"/>
<path id="path18" fill-rule="evenodd" clip-rule="evenodd" d="M10.5037 62.0552L5.0141 64.8149L5.3847 65.5518L10.874 62.7929L10.5037 62.0552Z" fill="#740134"/>
<path id="path20" fill-rule="evenodd" clip-rule="evenodd" d="M13.5903 67.3332L8.67178 68.6122L11.8643 64.6548L11.4085 63.947L7.40814 69.0824L7.72216 69.5693L14.0464 68.0415L13.5903 67.3332Z" fill="#740134"/>
<path id="path22" fill-rule="evenodd" clip-rule="evenodd" d="M12.7267 71.8351L14.4654 73.8343L15.0079 73.3623L13.2691 71.3636L14.7852 70.0448L16.5239 72.0439L17.0668 71.5719L14.8038 68.9699L10.1703 73.0006L12.433 75.6021L12.9758 75.1298L11.2371 73.1306L12.7267 71.8351Z" fill="#740134"/>
<path id="path24" fill-rule="evenodd" clip-rule="evenodd" d="M19.5726 76.6194C19.0909 77.1894 18.2997 77.3363 17.6898 76.8217L16.6507 75.9434L18.4178 73.8512L19.457 74.7295C20.0671 75.2452 20.0478 76.0561 19.5726 76.6194ZM19.9217 74.1798L18.2724 72.7858L14.3075 77.4795L14.9169 77.9952L16.1805 76.4991L17.146 77.3155L16.8143 79.5975L17.5119 80.1865L17.8742 77.7588C18.7047 78.0811 19.6048 77.819 20.1824 77.1351C20.9071 76.2764 20.9 75.007 19.9217 74.1798Z" fill="#740134"/>
<path id="path26" fill-rule="evenodd" clip-rule="evenodd" d="M24.3403 77.1394C23.4494 76.6112 22.4086 76.6978 21.8445 77.6485C21.2487 78.6522 21.9012 79.4274 22.6441 80.2557C23.0384 80.6932 23.4513 81.1838 23.0842 81.8025C22.7487 82.3683 22.1095 82.4485 21.4979 82.0861C20.7811 81.66 20.5788 80.9177 21.0084 80.1937L20.3213 79.7855C19.6546 80.9106 20.0442 82.06 21.1005 82.6866C22.0819 83.2688 23.2114 83.1532 23.7979 82.1638C24.4202 81.115 23.709 80.285 23.0065 79.4912C22.5915 79.0199 22.2313 78.5616 22.5579 78.0106C22.8579 77.5057 23.4294 77.4355 23.9805 77.7623C24.5917 78.1252 24.7389 78.7023 24.3783 79.3451L25.0654 79.7533C25.6351 78.7746 25.329 77.7255 24.3403 77.1394Z" fill="#740134"/>
<path id="path28" fill-rule="evenodd" clip-rule="evenodd" d="M25.17 84.6264L25.9284 84.9512L28.3465 79.3054L27.5885 78.9803L25.17 84.6264Z" fill="#740134"/>
<path id="path30" fill-rule="evenodd" clip-rule="evenodd" d="M33.334 80.9418L29.5102 79.8228L29.3079 80.5139L30.8326 80.9597L29.3101 86.165L30.0767 86.3892L31.5993 81.1842L33.1321 81.6329L33.334 80.9418Z" fill="#740134"/>
<path id="path32" fill-rule="evenodd" clip-rule="evenodd" d="M34.1966 85.613L35.6236 82.6105L36.1786 85.8833L34.1966 85.613ZM35.5039 81.2749L32.5803 87.0768L33.4149 87.1892L33.8547 86.3015L36.3239 86.6381L36.5191 87.6121L37.3541 87.7256L36.078 81.3526L35.5039 81.2749Z" fill="#740134"/>
<path id="path34" fill-rule="evenodd" clip-rule="evenodd" d="M41.1812 84.1243C40.5775 83.9539 40.0256 83.7652 40.001 83.1242C39.9781 82.537 40.421 82.1681 41.0608 82.1438C41.7713 82.1162 42.2085 82.5209 42.2547 83.2567L43.0528 83.2263C43.0002 82.0947 42.1738 81.3804 41.0244 81.4251C39.9895 81.4645 39.1617 82.1026 39.2046 83.2084C39.2497 84.3746 40.2187 84.6711 41.2932 84.9629C41.8612 85.1169 42.4742 85.3041 42.5021 86.0228C42.5275 86.6806 42.0344 87.0952 41.324 87.1232C40.4905 87.155 39.9172 86.6416 39.8846 85.799L39.0864 85.8302C39.1373 87.1375 40.0887 87.8909 41.3165 87.8436C42.457 87.7996 43.3429 87.0888 43.2984 85.9394C43.2516 84.7205 42.2027 84.4097 41.1812 84.1243Z" fill="#740134"/>
<path id="path36" fill-rule="evenodd" clip-rule="evenodd" d="M50.6558 84.7093L47.6469 80.6112L46.8452 80.8718L50.7872 86.0503L51.3376 85.8712L51.4776 79.3679L50.6766 79.6286L50.6558 84.7093Z" fill="#740134"/>
<path id="path38" fill-rule="evenodd" clip-rule="evenodd" d="M52.5619 78.7915L55.2084 84.3345L55.9521 83.9793L53.3059 78.4359L52.5619 78.7915Z" fill="#740134"/>
<path id="path40" fill-rule="evenodd" clip-rule="evenodd" d="M58.5729 81.7223L55.7098 77.1157L55.0316 77.5371L58.2743 82.7554L60.6601 81.2719L60.2802 80.6614L58.5729 81.7223Z" fill="#740134"/>
<path id="path42" fill-rule="evenodd" clip-rule="evenodd" d="M61.2354 72.9623L64.3267 76.5656L59.1378 74.7627L58.4653 75.3392L62.4647 80.001L63.0706 79.4811L59.9797 75.8789L65.1685 77.6818L65.8409 77.1045L61.8416 72.4431L61.2354 72.9623Z" fill="#740134"/>
<path id="path44" fill-rule="evenodd" clip-rule="evenodd" d="M67.7724 73.9775L66.2607 72.7054L67.9669 70.6772L67.4165 70.2131L65.7099 72.2427L64.1713 70.9483L65.8779 68.9198L65.3271 68.4561L63.106 71.0962L67.8085 75.0518L70.0294 72.4117L69.4786 71.9484L67.7724 73.9775Z" fill="#740134"/>
<path id="path46" fill-rule="evenodd" clip-rule="evenodd" d="M68.2529 63.9701L72.3067 66.4425L66.8131 66.3308L66.3516 67.0882L71.5973 70.2876L72.013 69.6054L67.9589 67.1329L73.4528 67.2446L73.9144 66.4873L68.6686 63.2879L68.2529 63.9701Z" fill="#740134"/>
<path id="path48" fill-rule="evenodd" clip-rule="evenodd" d="M75.1044 59.7451C73.9794 59.2731 73.2553 60.0931 72.5661 60.8981C72.1575 61.3732 71.7529 61.7939 71.162 61.5458C70.6195 61.3188 70.4724 60.7627 70.7198 60.1719C70.9944 59.5166 71.5459 59.2903 72.2327 59.5595L72.5413 58.8226C71.4936 58.3934 70.497 58.8416 70.0527 59.9015C69.6527 60.8569 69.8822 61.8756 70.9014 62.3035C71.9777 62.7536 72.6555 62.0005 73.3731 61.1505C73.7519 60.7007 74.1806 60.2238 74.8441 60.5021C75.4506 60.7566 75.6183 61.3786 75.3433 62.0338C75.021 62.8026 74.3138 63.1056 73.5371 62.7793L73.2284 63.5162C74.4341 64.0211 75.5184 63.4776 75.9935 62.3443C76.4347 61.2927 76.1643 60.1887 75.1044 59.7451Z" fill="#740134"/>
<path id="path50" fill-rule="evenodd" clip-rule="evenodd" d="M71.4824 56.3879L77.3656 58.1528L77.6026 57.3632L71.7191 55.5979L71.4824 56.3879Z" fill="#740134"/>
<path id="path52" fill-rule="evenodd" clip-rule="evenodd" d="M77.3695 50.7092C76.1715 50.479 75.6322 51.4308 75.123 52.3596C74.8215 52.9103 74.5121 53.4045 73.883 53.2845C73.3051 53.1735 73.0462 52.6597 73.1672 52.0306C73.3007 51.3319 73.7938 50.9971 74.5211 51.1189L74.6714 50.3347C73.5579 50.1299 72.6752 50.7744 72.4586 51.9034C72.2634 52.9204 72.6981 53.8711 73.7842 54.0783C74.9308 54.2979 75.4378 53.4213 75.9656 52.4413C76.2434 51.9232 76.5643 51.3677 77.2711 51.5031C77.9174 51.6266 78.2096 52.2014 78.0757 52.8996C77.9192 53.7178 77.289 54.1611 76.4619 54.0014L76.3114 54.7855C77.5955 55.0319 78.5447 54.2757 78.7761 53.0696C78.9906 51.9489 78.4989 50.9259 77.3695 50.7092Z" fill="#740134"/>
<path id="path54" fill-rule="evenodd" clip-rule="evenodd" d="M33.1159 60.5032C33.4729 60.6654 33.6996 60.1136 33.2947 59.9678C32.9702 59.8551 32.6949 60.3252 33.1159 60.5032Z" fill="#740134"/>
<path id="path56" fill-rule="evenodd" clip-rule="evenodd" d="M52.877 43.9317C53.1366 44.2396 53.2497 44.4992 53.3145 44.9372C53.0388 44.7255 52.6822 44.5959 52.245 44.5797C52.3094 44.8877 52.5038 45.1473 52.3581 45.7149L52.3421 45.7471C52.1311 45.3579 51.888 45.2118 51.6775 44.969C51.0447 44.288 51.2718 43.2184 51.6284 42.2129C51.6284 41.7911 51.4179 41.3858 50.9477 41.3858C49.7317 41.5809 48.6617 42.6021 47.4458 42.5048C47.0243 41.6293 46.7812 40.2514 45.6138 39.7321C47.2352 39.9267 48.289 40.8021 48.8401 41.6454C49.8935 40.7376 51.1586 39.6509 52.6661 40.0723C53.2014 40.2514 53.5093 40.6403 53.6224 41.2239C53.7203 42.1474 53.1527 43.3319 54.1252 44.1422C53.7364 44.3535 53.2659 43.802 52.877 43.9317ZM45.2081 42.5048C45.0624 41.6614 44.7061 40.7376 44.1385 39.8461C44.6245 39.6677 45.322 39.9918 45.7109 40.3807C46.2623 40.8999 46.5703 41.7106 46.7489 42.5208C46.4568 42.5048 45.5977 42.537 45.2081 42.5048ZM42.0957 42.0994C42.1284 41.905 42.3067 41.5158 42.4685 41.2074C42.9551 40.9805 43.3601 40.6882 43.7006 40.348C44.1547 40.7699 44.56 41.7911 44.6245 42.4886C43.8306 42.4564 42.9391 42.3264 42.0957 42.0994ZM41.8526 41.3858C41.3173 42.3425 41.0584 43.3319 40.9933 44.612L39.9398 43.5586C39.7612 43.8826 39.518 44.418 39.2752 44.7738C39.1614 44.5637 38.9182 44.2235 38.7399 43.9478C38.983 43.2345 39.0474 42.845 38.9505 41.921C39.291 41.6293 40.4418 40.6564 41.4312 40.1701C42.258 39.8783 42.8091 39.6025 42.9712 39.2463C43.0844 39.3591 43.344 39.5381 43.5388 39.6838C43.1983 40.2836 41.9826 41.0456 40.9284 41.273C41.1071 41.4018 41.5282 41.4018 41.8526 41.3858ZM37.9779 45.2773C37.8809 46.0067 37.9618 46.0873 37.9779 46.3308C38.0105 46.6709 37.3133 46.7522 36.8915 46.8327C36.2431 47.044 35.6272 47.2707 34.9626 47.6438C35.0435 46.9961 35.4163 46.6871 35.8542 46.3791C36.0808 46.2663 36.3569 46.1367 36.5997 45.9089C36.9241 45.0822 36.9241 43.5098 36.9402 42.229C37.2973 42.2612 38.2049 42.3264 38.6099 42.3425C38.7399 43.4446 38.1076 44.3363 37.9779 45.2773ZM28.591 46.6709C28.4131 46.9627 28.5262 47.3842 28.591 47.7082C28.3314 47.7576 27.9909 47.7899 27.553 47.8221C27.5369 47.2223 27.7478 46.7203 27.9426 46.3308C28.5585 45.6987 29.3527 44.9851 29.9202 44.4498C30.1311 44.2235 30.3904 43.9478 30.6986 43.7365L34.249 43.4941L34.2651 43.3802C34.0384 43.2345 33.6166 43.2663 33.3573 43.2663L33.4057 42.861C34.3628 42.4235 35.4485 42.3103 36.4701 42.2452C36.4539 43.1206 36.5027 44.2557 36.3569 45.1151C35.0597 45.3579 32.6602 44.5959 31.1527 44.6281L28.591 46.6709ZM26.4344 45.925C26.5965 45.3253 26.6614 44.6281 26.9049 44.1257C27.7965 43.4286 29.0773 42.6992 30.2281 42.1968C31.2175 42.1646 32.1574 42.1968 33.0656 42.3425C33.0007 42.6186 32.952 42.8944 32.9198 43.2345C32.0604 43.169 31.2336 43.1046 30.3256 43.1046C29.45 43.3963 28.4449 43.8988 27.6507 44.5637C27.5207 45.0495 27.7155 45.4069 27.7965 45.8929C27.4721 45.925 26.8562 45.9089 26.4673 45.925H26.4344ZM30.3417 33.3936C30.6335 33.458 30.974 33.6203 31.1362 33.945C31.1362 33.945 31.3797 33.9117 31.6547 33.896C31.7199 34.22 31.7199 34.4309 31.7524 34.7392C31.3468 34.7872 30.5851 34.9333 30.2607 35.209L30.0176 34.7066C29.6775 34.1556 29.8554 34.2691 29.5797 33.9611C29.8232 33.945 30.1963 34.1556 30.5038 34.3497C30.439 33.9933 30.3742 33.7015 30.3417 33.3936ZM32.1574 38.1595C31.9143 38.2085 31.4277 38.2891 31.0875 38.3708L31.0227 38.3053L30.3742 35.6304C30.65 35.3708 31.3959 35.209 31.7847 35.209L32.1574 38.1595ZM32.1574 39.7483C31.5255 39.7483 31.2497 39.3269 31.1527 38.8245C31.5903 38.711 32.5141 38.5169 33.0168 38.6132C33.1139 39.2785 32.7898 39.7483 32.1574 39.7483ZM33.0329 38.1756L32.5306 38.1434L32.2222 35.2746C32.7737 35.3225 33.1955 35.5986 33.3248 35.9706C33.5844 36.458 32.9685 37.6249 33.0329 38.1756ZM35.8051 35.2746C36.3727 35.7282 36.8754 36.3119 37.2808 37.0084C37.1673 37.0244 36.9077 37.0896 36.6323 37.1874C36.1621 36.4086 35.2053 35.2746 34.2167 34.9988L34.379 35.4035C35.1889 35.9062 35.6594 36.4086 36.146 37.3335C35.2383 37.7055 34.2651 38.2412 33.4057 39.0027C33.4866 38.5327 33.2925 38.0468 33.5035 37.4792C33.8601 36.5704 34.0058 35.5986 32.952 34.9494C32.7089 34.8366 32.4496 34.7872 32.1739 34.7554C32.1414 34.4631 32.1414 34.1395 32.093 33.8634C33.2277 33.8154 34.8813 34.4631 35.8051 35.2746ZM34.6869 27.6548C34.7839 27.557 34.9136 27.4914 35.0757 27.6054C35.1889 27.7192 35.1889 27.881 35.1245 28.0268C35.0274 28.1406 34.8487 28.1729 34.7191 28.0433C34.573 27.9462 34.6056 27.7837 34.6869 27.6548ZM36.3727 27.2168C36.6971 27.2652 36.8915 27.6214 36.8915 27.9462C36.8589 28.1729 36.7619 28.3842 36.5836 28.546C36.6323 29.1457 36.7619 30.7671 36.8267 31.7231L39.2752 32.7121C39.0474 33.1178 38.9666 33.5064 38.9182 33.9117L35.7403 32.5181C35.7403 31.1728 35.7891 29.8261 35.8381 28.5131C35.2215 28.0594 35.5133 27.1194 36.3727 27.2168ZM40.8958 33.004L44.5435 32.4525C45.0463 33.7821 45.2898 37.9816 43.8145 39.2302C42.1935 38.403 40.961 35.209 40.8958 33.004ZM37.6696 40.5103C38.6586 39.3763 39.956 38.4352 41.723 37.7549C41.9497 38.1756 42.3228 38.5814 42.6307 38.9544C42.4847 39.2623 42.0957 39.5381 41.3173 39.7483C40.3773 40.2346 39.2262 41.2891 38.8534 41.4832L37.6696 40.5103ZM37.3133 40.8021L38.5777 41.7593C38.5938 41.8072 38.5777 41.8889 38.5616 41.9372C38.0911 41.905 37.3456 41.8398 36.8915 41.8072C36.8589 41.5809 36.8267 41.4509 36.8106 41.1595C36.9885 41.0134 37.1346 40.8999 37.3133 40.8021ZM41.269 36.7494C41.3499 36.96 41.4634 37.1222 41.593 37.3653C40.5883 37.7055 39.6964 38.2731 38.8534 38.7593C38.5616 38.4681 38.1888 37.9171 38.6264 37.7055L41.269 36.7494ZM40.6205 34.5114C40.7175 35.1285 40.8958 35.7444 41.0746 36.3119C40.7337 36.4246 40.0368 36.7004 39.5502 36.8139C39.4045 36.2463 39.2752 35.4202 39.3071 34.7872C39.7937 34.7066 40.1664 34.6254 40.6205 34.5114ZM39.7289 31.9506C39.2587 31.5613 39.0966 30.6375 39.1614 30.0535C39.1774 29.8261 39.3884 29.4859 39.648 29.5185C40.1178 29.7455 40.2152 31.6426 39.7289 31.9506ZM39.8908 32.4687C40.5718 31.5942 40.6688 30.2479 40.0694 29.3563C40.6366 29.1941 41.366 29.2263 41.9497 29.4215C42.0471 30.1674 42.0149 31.0589 41.4312 31.9183L41.7878 32.4525C41.4473 32.5181 40.8636 32.5986 40.4096 32.6638C40.3773 33.0857 40.4587 33.7337 40.5235 34.1068C40.28 34.1713 39.6154 34.3335 39.2752 34.3335C39.3071 33.7015 39.4532 33.0366 39.8908 32.4687ZM34.1032 41.1101C34.9136 39.7165 36.3401 38.5814 38.0105 37.8838C37.9453 38.4191 38.1727 38.6627 38.5129 39.035L37.2643 40.2836L36.4539 40.8834C35.6433 40.8512 34.9948 40.9478 34.1032 41.1101ZM33.6005 39.4242C34.5407 38.6627 36.2431 37.6249 37.6696 37.3653C37.7831 37.3653 37.8161 37.4459 37.9292 37.4459C35.8542 38.3379 34.5895 39.5865 33.7144 40.8512C33.6492 40.3807 33.6492 39.8783 33.6005 39.4242ZM33.7623 41.7593C34.5408 41.3858 35.5785 41.2568 36.3569 41.3213C36.4056 41.5315 36.4379 41.6614 36.4539 41.8556C35.4485 41.9372 34.4599 42.0507 33.4866 42.4235C33.4866 42.1806 33.6331 41.9856 33.7623 41.7593ZM37.4591 27.2168L37.6861 25.8544L38.0427 27.2491L44.9819 27.0216L46.9268 27.557L45.014 28.0433L38.0911 28.0752L37.897 29.5024L37.5075 28.189H37.2643C37.3456 27.881 37.3781 27.6705 37.1833 27.2652L37.4591 27.2168ZM62.3125 48.5032V24.1525L17.0966 24.1367C17.0966 33.9582 16.9698 43.9073 17.0292 53.6855H43.7536C44.0767 51.9232 46.3389 49.841 45.2572 47.8544L43.9599 46.3308C44.2682 46.233 44.7061 46.0873 45.0302 45.9089L46.4568 47.3201C46.538 47.806 46.7651 48.3897 46.9595 48.7137C46.3271 49.7683 45.8086 51.308 45.6138 52.3134C45.1502 52.4251 44.9389 52.8047 45.197 53.6855H46.6841C46.751 52.5863 47.3816 51.9382 47.7698 50.9678C48.2564 49.751 48.3051 48.5032 47.8023 47.8705C46.7164 47.0118 45.8409 46.1041 44.7061 45.1312C44.5765 45.0989 44.4465 44.9851 44.3169 45.0177C44.1873 45.0495 44.5113 45.4875 44.6735 45.553C42.5985 46.4281 40.5557 46.1685 38.3829 45.9089C38.3668 45.4069 38.3668 45.0016 38.5455 44.5153C38.837 44.8555 38.9666 45.0822 39.1614 45.6014C39.4532 45.3418 39.826 44.612 40.0368 44.288L41.3499 45.6332C41.4151 44.7581 41.6092 43.1858 41.9178 42.5692C42.8413 42.7966 43.8306 42.9427 44.7706 43.04C44.9006 43.5743 44.6735 44.4659 45.1598 44.4659C45.6464 44.4831 45.4029 43.3963 45.3707 43.04C45.8086 43.1046 46.4084 43.0884 46.895 43.0884C47.0082 43.5904 46.9268 44.418 47.3487 44.4018C47.7862 44.3853 47.5427 43.4446 47.5266 43.04C47.9646 42.9748 48.4021 42.9748 48.9049 42.8127C48.0946 44.4659 48.4186 46.6709 49.5695 47.7899L48.2564 52.3292C47.8038 52.4753 47.7218 52.8949 48.0112 53.6855H62.2964C62.2982 52.2461 62.3125 50.1897 62.3125 48.5032Z" fill="#740134"/>
<path id="path58" fill-rule="evenodd" clip-rule="evenodd" d="M49.7643 64.4883C47.6079 65.3638 46.1491 67.8606 43.6036 68.2008C44.2034 67.9086 44.7061 67.5524 44.9979 67.3414C45.014 67.2282 44.9492 67.1953 44.8353 67.1953C43.9277 67.6823 43.3601 68.087 42.5007 68.3143L41.0419 68.6062C40.961 68.59 40.8153 68.6383 40.7336 68.4604C41.0903 68.266 42.2093 67.9419 42.7926 67.649C43.4088 67.3732 43.8145 67.0986 44.3817 66.709C44.4304 66.6117 44.3978 66.4656 44.1873 66.515C43.6681 66.839 43.2466 67.0174 42.6955 67.2928C41.8849 67.6662 41.2851 67.8925 40.5066 68.1202C40.28 68.1682 40.0368 68.1037 39.9881 67.9902C40.0694 67.9419 39.9559 67.8925 40.2316 67.7628C40.5717 67.5845 41.5121 67.277 42.1605 66.9368C42.7926 66.6117 43.2953 66.337 43.8145 65.9474C43.8629 65.8178 43.798 65.7362 43.6197 65.8013C42.3553 66.5634 41.3821 66.9686 39.972 67.4872C39.7775 67.5524 39.5018 67.601 39.3722 67.5366V67.1953L41.2528 66.207C41.8201 65.9313 42.258 65.6556 42.8412 65.2181L44.2842 63.953V63.7424C43.2791 63.9047 42.1935 64.2126 41.0419 63.7424V63.5967C41.593 63.4505 42.1935 63.3693 42.7281 63.2232C43.6358 62.9807 44.479 62.5594 45.4838 62.3316C46.5864 62.1698 47.9807 62.1536 49.1967 62.0237C49.5207 62.6561 49.7155 63.4187 49.7643 64.4883ZM49.7481 68.1521C49.683 68.4439 49.5207 68.4278 49.375 68.3466C48.8888 67.5684 48.5969 66.6446 48.5805 65.7362C48.8561 65.4612 49.3105 65.1042 49.8291 64.9097C49.9426 65.8336 49.9426 67.2444 49.7481 68.1521ZM40.6853 71.4761C40.4905 71.6544 39.7127 71.8646 39.4531 71.8646L39.437 71.4431C39.9559 71.3787 40.4905 71.1843 40.9123 70.843C41.0258 71.1352 40.8153 71.3787 40.6853 71.4761ZM39.3883 68.1037C39.5341 68.1364 39.5993 68.087 39.6802 68.3304C39.7289 68.4604 40.0207 68.5083 40.28 68.6222C40.4257 68.8335 40.6205 68.8496 40.7823 68.8818C40.7662 69.1737 40.7823 69.9675 40.7823 70.2926C40.7823 70.6973 39.6802 70.9407 39.421 70.9247L39.3883 68.1037ZM39.2422 64.2287C39.6318 64.2126 40.1664 64.0503 40.4586 63.8724L40.4905 66.0936L39.307 66.7578L39.2422 64.2287ZM39.21 63.2397C39.6963 63.1426 40.15 63.013 40.5717 62.6561C40.7175 62.8509 40.7501 63.1265 40.5717 63.3049C40.1664 63.5967 39.8589 63.7102 39.2422 63.7907C39.21 63.6611 39.1935 63.3855 39.21 63.2397ZM39.1614 60.013C39.7937 59.9168 40.1339 59.8029 40.5234 59.4788V61.9915C40.3773 62.5099 39.8098 62.6399 39.1614 62.8179V60.013ZM39.1614 58.879C39.5341 58.8136 40.1825 58.7172 40.5066 58.2793C40.6688 58.6517 40.4905 58.9596 40.1825 59.187C39.9229 59.365 39.4045 59.5432 39.1452 59.5594C39.1452 59.4305 39.0966 58.8952 39.1614 58.879ZM37.6213 72.0597C37.589 71.1843 37.7509 70.5193 38.9182 70.1953C38.9666 70.211 38.9995 71.8646 38.9995 71.8968C38.5938 71.9946 38.0588 72.0103 37.6213 72.0597ZM34.7351 72.4321C34.7191 71.8324 34.4921 71.0385 33.941 70.6651C33.5682 70.3893 32.952 70.2271 32.4818 70.2759L32.417 61.5377C33.7143 61.5539 34.6382 60.9219 34.573 59.365L36.7458 59.1219C36.7296 60.1925 37.54 61.1321 38.7072 61.1321L38.9504 69.7079C37.5235 70.1136 37.0698 70.8924 37.1672 72.1564L34.7351 72.4321ZM32.9846 72.5618C32.7737 72.5618 32.5957 72.4644 32.4818 72.2054V70.6489C32.952 70.6489 33.3412 70.7789 33.6814 71.0385C34.0384 71.3622 34.298 71.7841 34.298 72.4644C33.8761 72.5138 33.4057 72.5618 32.9846 72.5618ZM32.4009 60.0786C32.3844 59.7868 32.4496 59.5432 32.7737 59.5111C33.0977 59.4788 33.6653 59.4466 34.168 59.4134C34.1519 60.581 33.6975 61.1481 32.4009 61.1481C32.4009 60.808 32.417 60.5004 32.4009 60.0786ZM38.6912 58.9757V60.6784L38.318 60.6623C37.6696 60.5484 37.1833 59.8029 37.1833 59.1054C37.6213 59.0409 38.2049 59.0248 38.6912 58.9757ZM32.0114 59.7545L31.9795 71.4105C31.882 71.2649 31.7364 71.1843 31.5576 71.0385L31.5903 59.365C31.5903 59.0248 31.6547 58.7978 31.882 58.7817C32.9198 58.6839 34.3459 58.5382 35.5294 58.3598C36.7458 58.1815 38.221 58.0519 39.4693 57.874C39.5663 57.7601 39.5341 57.6462 39.4045 57.5327L31.5903 58.4411C31.3797 58.5382 31.1849 58.7172 31.1849 58.7978C31.1849 58.9919 31.1526 59.5432 31.1526 59.7051C31.1526 63.5805 31.1362 67.2282 31.1036 70.8763L30.6499 70.7789C30.5851 67.1309 30.6174 62.883 30.6174 58.9436C30.6174 58.7172 30.5851 58.3277 30.6499 58.1815C30.7147 58.0358 31.1036 58.0358 31.1036 58.0358C33.8113 57.7601 36.5996 57.3705 39.3232 57.0303C39.4531 56.982 39.437 56.8201 39.2752 56.7224C36.5996 57.0146 33.4221 57.2581 30.8279 57.5656C30.7309 57.5656 30.3417 57.6301 30.212 57.8085C30.0824 57.9875 30.0985 58.3598 30.0985 58.4894C30.0985 62.5261 30.2442 66.693 30.1472 70.7789H29.7744C29.7583 66.6117 29.7096 61.3587 29.7096 57.7923C29.7096 57.4199 29.8392 57.0791 30.3903 57.0464C33.7462 56.755 35.8212 56.6583 38.529 56.317C39.3232 56.317 40.0207 56.3987 40.3935 56.982C40.6853 57.3222 40.5066 57.9702 39.9881 58.198C39.6641 58.3438 39.3232 58.3921 38.9343 58.4411C36.8106 58.6839 34.6868 58.9274 32.5627 59.1709C32.2552 59.2192 32.0929 59.4305 32.0114 59.7545ZM60.8212 54.5714H17.0403C17.2022 60.2934 19.4151 65.2534 22.5274 68.9957C31.4928 79.6462 49.067 79.4844 57.6433 68.1521C60.6009 64.021 62.1836 60.1162 62.29 54.5714H61.437C61.432 57.4067 60.4778 61.1539 59.4913 63.1105C59.2642 63.3049 59.1833 63.3532 58.8754 63.4667C57.9677 63.8401 57.481 63.8068 56.5247 64.1148C56.3299 64.2126 56.0703 64.2942 56.0219 64.4399C56.6868 64.4399 57.3675 64.326 57.9677 64.1803C57.6758 64.3587 57.4649 64.5366 57.2705 64.6344C55.0816 65.9152 52.5368 67.1953 50.2183 68.1364C50.6881 66.4988 50.3962 63.6611 49.6016 61.5861C50.3153 61.4722 51.0608 61.3426 51.7257 61.1481C52.4229 61.7973 52.7309 63.3209 52.7795 64.1803C53.1036 63.775 53.1201 63.4993 53.1526 62.8995C53.0556 62.3316 52.6822 61.5217 52.2932 60.8724C52.877 60.6139 53.6872 60.1592 54.3039 59.9326C54.9359 59.689 55.8275 59.5111 56.1845 59.3331C55.9571 59.1548 55.3086 59.2836 54.9359 59.3331C56.4437 58.3115 58.4379 57.5166 60.221 56.9659C60.1401 56.6583 59.2163 56.9659 58.9076 56.9659C59.7383 56.3271 60.4591 55.4201 60.8212 54.5714Z" fill="#740134"/>
<path id="path60" fill-rule="evenodd" clip-rule="evenodd" d="M33.377 71.4092C32.9233 71.2631 32.7285 71.8628 33.1181 72.0569C33.5395 72.203 33.7666 71.5871 33.377 71.4092Z" fill="#740134"/>
<path id="path62" fill-rule="evenodd" clip-rule="evenodd" d="M36.2666 65.6913C36.2828 66.1622 36.4289 66.7619 35.9748 66.8265C35.3264 66.8916 35.6182 66.0971 35.4402 65.8375C35.1641 65.7243 34.5157 66.0154 34.3699 65.513C34.4348 64.8649 35.0024 64.9293 35.4073 64.8487C35.3586 64.3783 35.0993 63.9894 35.7804 63.8276C36.3315 63.8759 36.121 64.3457 36.1696 64.6859C36.5259 64.7031 37.1421 64.6218 37.1583 65.1571C37.1748 65.6913 36.6556 65.5291 36.2666 65.6913ZM37.5149 65.1889C37.4992 64.5573 37.0935 64.4274 36.5424 64.394C36.5585 64.0699 36.4614 63.7459 36.2828 63.568C35.602 63.2439 34.7588 63.6163 34.9697 64.4918C34.5966 64.5573 33.8998 64.7997 33.9485 65.4317C33.9969 66.0644 34.3699 66.2427 35.0993 66.2105C35.1316 66.7451 35.4722 67.3457 36.0074 67.264C36.5424 67.1827 36.6556 66.5829 36.6556 65.9509C37.0773 65.9509 37.5801 65.7243 37.5149 65.1889Z" fill="#740134"/>
<path id="path64" fill-rule="evenodd" clip-rule="evenodd" d="M43.9276 37.5916C43.8628 37.2192 43.7657 36.7978 43.7171 36.4576C44.0736 36.4082 44.3003 36.392 44.5274 36.3437L44.4303 35.744C44.1385 35.8244 44.0736 35.8084 43.668 35.9223C43.5871 35.5488 43.5388 35.2408 43.4578 34.7868C43.7496 34.755 44.0086 34.7388 44.2682 34.7062C44.2517 34.5283 44.2355 34.3331 44.2194 34.1391C44.0246 34.187 43.5871 34.2354 43.36 34.317C43.2791 33.9113 43.2304 33.6199 43.2143 33.1336C43.0843 33.1819 42.7116 33.1991 42.5985 33.2471C42.7281 33.6689 42.7764 34.0091 42.8412 34.3987C42.5985 34.4305 42.3553 34.4792 41.9825 34.511L42.0631 35.0464C42.3553 34.9984 42.7925 34.8846 42.939 34.8846C43.0034 35.3386 43.0682 35.6462 43.1008 36.0036C42.8412 36.0841 42.5175 36.1002 42.2579 36.1335L42.3875 36.7322C42.8251 36.6355 42.955 36.6033 43.1821 36.522C43.1821 36.8951 43.263 37.4133 43.2143 37.7051C43.4739 37.7051 43.7496 37.6245 43.9276 37.5916Z" fill="#740134"/>
<path id="path66" fill-rule="evenodd" clip-rule="evenodd" d="M38.5075 71.0524C38.1183 70.8583 37.8429 71.3764 38.1995 71.5877C38.6049 71.7821 38.8319 71.1985 38.5075 71.0524Z" fill="#740134"/>
<path id="path68" fill-rule="evenodd" clip-rule="evenodd" d="M31.5255 36.5056C31.6064 36.3276 31.5576 36.2141 31.4445 36.0519C31.2984 36.0196 31.2497 35.9384 31.1036 36.0519C31.0227 36.2141 31.0714 36.3921 31.1362 36.5382C31.3145 36.6355 31.4928 36.6517 31.5255 36.5056Z" fill="#740134"/>
<path id="path70" fill-rule="evenodd" clip-rule="evenodd" d="M37.9761 60.0001C38.3005 60.0807 38.4467 59.5782 38.1226 59.4809C37.7491 59.3348 37.6521 59.951 37.9761 60.0001Z" fill="#740134"/>
<path id="path72" fill-rule="evenodd" clip-rule="evenodd" d="M6.72243 36.2329L1.05235 33.0479L0.904825 33.8767L5.37608 36.2873L0.345874 37.0125L0.197632 37.8413L6.62109 36.8029L6.72243 36.2329Z" fill="#740134"/>
<path id="path74" fill-rule="evenodd" clip-rule="evenodd" d="M7.72037 32.074L1.81146 30.3899L1.58551 31.1834L7.49372 32.8682L7.72037 32.074Z" fill="#740134"/>
<path id="path76" fill-rule="evenodd" clip-rule="evenodd" d="M9.35392 27.4825L8.68253 27.2236L7.95923 29.0981L2.90002 27.1448L2.61249 27.8896L8.34272 30.1025L9.35392 27.4825Z" fill="#740134"/>
<path id="path78" fill-rule="evenodd" clip-rule="evenodd" d="M10.2026 25.6671L6.02744 23.4066L11.5192 23.2365L11.9406 22.4566L6.53876 19.5322L6.15848 20.234L10.3336 22.4946L4.84221 22.6654L4.42004 23.4453L9.82265 26.3696L10.2026 25.6671Z" fill="#740134"/>
<path id="path80" fill-rule="evenodd" clip-rule="evenodd" d="M13.4987 20.2358L8.47772 16.6956L8.0022 17.3701L13.0235 20.9097L13.4987 20.2358Z" fill="#740134"/>
<path id="path82" fill-rule="evenodd" clip-rule="evenodd" d="M12.159 14.1798L15.1898 15.5356L13.8646 17.0337L12.159 14.1798ZM14.7415 18.5595L14.247 17.7001L15.8976 15.8335L16.8161 16.2119L17.3744 15.5811L11.3656 13.1038L10.9818 13.5375L14.1836 19.1904L14.7415 18.5595Z" fill="#740134"/>
<path id="path84" fill-rule="evenodd" clip-rule="evenodd" d="M19.651 13.803C20.646 12.9687 20.6665 11.6807 19.9221 10.7923L17.2558 7.61081L16.6435 8.12396L19.3097 11.3054C19.806 11.8981 19.8071 12.7323 19.1884 13.2515C18.5628 13.775 17.7431 13.6031 17.2583 13.0253L14.5917 9.84381L13.9799 10.3565L16.6461 13.538C17.3905 14.426 18.6549 14.6373 19.651 13.803Z" fill="#740134"/>
<path id="path86" fill-rule="evenodd" clip-rule="evenodd" d="M22.6832 8.14211C23.2558 8.00608 23.8839 7.87783 24.2512 8.49658C24.5874 9.06134 24.3514 9.66148 23.7406 10.0245C23.0238 10.4499 22.2754 10.2726 21.8453 9.54827L21.1589 9.95573C21.8267 11.0801 23.0219 11.2886 24.0779 10.6612C25.0587 10.0782 25.4984 9.03091 24.9108 8.04256C24.2881 6.99453 23.2185 7.22187 22.1851 7.45818C21.5735 7.59678 20.9985 7.69349 20.6712 7.14312C20.3711 6.63712 20.5841 6.10289 21.1345 5.77527C21.7461 5.41255 22.323 5.5594 22.7147 6.1842L23.4008 5.77601C22.8153 4.80737 21.7483 4.57463 20.7597 5.1612C19.8698 5.69003 19.4473 6.64537 20.0116 7.59605C20.6078 8.59943 21.6004 8.39713 22.6832 8.14211Z" fill="#740134"/>
<path id="path88" fill-rule="evenodd" clip-rule="evenodd" d="M31.6257 7.4355C32.8772 7.08928 33.43 5.92557 33.121 4.80907L32.0149 0.808643L31.245 1.0214L32.3512 5.0221C32.5571 5.76616 32.2118 6.52599 31.4338 6.74195C30.6475 6.95929 29.9728 6.46264 29.772 5.73573L28.6652 1.73466L27.8953 1.94733L29.0018 5.94775C29.3104 7.06489 30.3738 7.78108 31.6257 7.4355Z" fill="#740134"/>
<path id="path90" fill-rule="evenodd" clip-rule="evenodd" d="M35.7525 6.42234L35.3636 1.69142L38.5064 6.19602L39.3898 6.12333L38.8864 0.00274086L38.0911 0.0675521L38.4795 4.79847L35.3368 0.293877L34.4534 0.366935L34.9565 6.48779L35.7525 6.42234Z" fill="#740134"/>
<path id="path92" fill-rule="evenodd" clip-rule="evenodd" d="M42.2813 0.15028L41.4573 0.101235L41.0889 6.23428L41.912 6.28369L42.2813 0.15028Z" fill="#740134"/>
<path id="path94" fill-rule="evenodd" clip-rule="evenodd" d="M45.6875 6.80713L48.9549 1.18283L48.1278 1.02351L45.6532 5.46L45.0011 0.418694L44.174 0.259379L45.1189 6.69722L45.6875 6.80713Z" fill="#740134"/>
<path id="path96" fill-rule="evenodd" clip-rule="evenodd" d="M51.8268 8.6958L52.0767 8.02196L49.5914 7.10236L50.2764 5.25042L52.7621 6.16965L53.0113 5.49462L50.5255 4.57548L51.2231 2.69027L53.7085 3.6094L53.9584 2.93447L50.7235 1.73849L48.5927 7.49983L51.8268 8.6958Z" fill="#740134"/>
<path id="path98" fill-rule="evenodd" clip-rule="evenodd" d="M56.4803 4.95613L57.6627 5.6286C58.357 6.02322 58.4869 6.82457 58.122 7.46551C57.754 8.11368 57.003 8.40371 56.3091 8.00872L55.1264 7.33662L56.4803 4.95613ZM53.799 9.67018L54.7666 7.9694L55.8651 8.5942L55.9579 10.8988L56.7513 11.3496L56.6622 8.89606C57.5376 9.06152 58.3741 8.6382 58.8164 7.86013C59.3717 6.8837 59.1322 5.63648 58.0182 5.0027L56.1416 3.9357L53.1047 9.27565L53.799 9.67018Z" fill="#740134"/>
<path id="path100" fill-rule="evenodd" clip-rule="evenodd" d="M58.7547 10.3654C57.9365 11.3859 58.1617 12.5783 59.1202 13.3471C60.0101 14.0608 61.1448 14.1044 61.8638 13.2078C62.6272 12.256 62.0389 11.3341 61.4545 10.4496C61.1097 9.92496 60.8172 9.42079 61.2182 8.92057C61.5856 8.46223 62.1614 8.47369 62.6612 8.87473C63.2155 9.31877 63.2807 9.91176 62.8335 10.4979L63.4565 10.9975C64.158 10.1083 64.0019 9.027 63.1049 8.30723C62.2967 7.66015 61.2533 7.60002 60.5619 8.46223C59.8314 9.37358 60.3692 10.2319 60.9891 11.1568C61.3174 11.6444 61.6579 12.188 61.2078 12.7495C60.7964 13.2623 60.1519 13.2522 59.5979 12.8075C58.9469 12.2865 58.8507 11.5227 59.3777 10.8649L58.7547 10.3654Z" fill="#740134"/>
<path id="path102" fill-rule="evenodd" clip-rule="evenodd" d="M62.5202 16.2676L66.9012 11.9589L66.3225 11.3709L61.9419 15.6793L62.5202 16.2676Z" fill="#740134"/>
<path id="path104" fill-rule="evenodd" clip-rule="evenodd" d="M64.4506 18.4448L64.9498 19.0679L69.184 15.6805L70.1812 16.9273L70.7434 16.4779L68.2547 13.3669L67.693 13.8167L68.6848 15.0564L64.4506 18.4448Z" fill="#740134"/>
<path id="path106" fill-rule="evenodd" clip-rule="evenodd" d="M68.3801 24.2124L68.9949 23.8382L67.6173 21.5734L69.3046 20.5475L70.6821 22.8116L71.2969 22.4381L69.9194 20.1733L71.6367 19.1288L73.0142 21.3937L73.6293 21.0195L71.8362 18.0721L66.5875 21.2654L68.3801 24.2124Z" fill="#740134"/>
<path id="path108" fill-rule="evenodd" clip-rule="evenodd" d="M69.576 26.6712L69.9023 27.3999L74.8512 25.1817L75.5043 26.639L76.161 26.3454L74.5318 22.7091L73.8751 23.0038L74.5247 24.4534L69.576 26.6712Z" fill="#740134"/>
<path id="path110" fill-rule="evenodd" clip-rule="evenodd" d="M75.9595 29.7932L73.2427 31.6998L72.6354 29.7939L75.9595 29.7932ZM70.8763 29.7645L71.8667 29.7806L72.6237 32.1546L71.8277 32.7491L72.0837 33.5522L77.2908 29.6636L77.115 29.1117L70.6202 28.9624L70.8763 29.7645Z" fill="#740134"/>
<path id="path112" fill-rule="evenodd" clip-rule="evenodd" d="M76.7801 33.6626C75.6322 33.873 75.4761 34.8738 75.3393 35.9785C75.268 36.5629 75.1695 37.1967 74.462 37.3256C73.8142 37.4438 73.3344 37.0152 73.2066 36.3162C73.0562 35.4952 73.4831 34.8549 74.312 34.7038L74.1684 33.9179C72.8822 34.1531 72.2706 35.2022 72.4922 36.4107C72.6974 37.5325 73.5263 38.3085 74.6575 38.1019C75.857 37.8828 76.016 36.8003 76.1539 35.7494C76.2363 35.1281 76.3454 34.5541 76.9756 34.4388C77.5543 34.3332 77.9815 34.7192 78.0968 35.3494C78.225 36.0484 77.8866 36.5389 77.1644 36.6882L77.3083 37.4745C78.4205 37.2611 79.0102 36.342 78.8033 35.2112C78.617 34.1929 77.8677 33.4641 76.7801 33.6626Z" fill="#740134"/>
<path id="path114" fill-rule="evenodd" clip-rule="evenodd" d="M33.1569 19.5483V14.4308H32.5209C32.5209 15.0445 32.3455 15.2783 31.4313 15.2783V15.8118H32.4698V19.5483H33.1569Z" fill="#740134"/>
<path id="path116" fill-rule="evenodd" clip-rule="evenodd" d="M40.3054 19.5483H41.0143L43.2881 14.4308H40.1152V15.0305H42.3378L40.3054 19.5483Z" fill="#740134"/>
<path id="path118" fill-rule="evenodd" clip-rule="evenodd" d="M46.1362 17.2309C45.4781 17.2309 45.0467 16.7117 45.0467 16.09C45.0467 15.4692 45.4781 14.95 46.1362 14.95C46.794 14.95 47.2183 15.4692 47.2183 16.09C47.2183 16.7117 46.794 17.2309 46.1362 17.2309ZM46.056 19.5483L47.5764 17.1062C47.7594 16.8066 47.8837 16.47 47.8837 16.0757C47.8837 15.1465 47.1965 14.3502 46.1362 14.3502C45.0764 14.3502 44.3817 15.1465 44.3817 16.09C44.3817 17.0328 45.0692 17.8307 46.1437 17.8307C46.2312 17.8307 46.407 17.8081 46.4578 17.7501L45.288 19.5483H46.056Z" fill="#740134"/>
<path id="path120" fill-rule="evenodd" clip-rule="evenodd" d="M28.3339 17.9038C28.792 17.9038 29.1636 17.5326 29.1636 17.0742C29.1636 16.6166 28.792 16.2453 28.3339 16.2453C27.8763 16.2453 27.505 16.6166 27.505 17.0742C27.505 17.5326 27.8763 17.9038 28.3339 17.9038Z" fill="#740134"/>
<path id="path122" fill-rule="evenodd" clip-rule="evenodd" d="M51.8152 17.1061C51.8152 16.6478 51.4443 16.2762 50.9863 16.2762C50.5283 16.2762 50.157 16.6478 50.157 17.1061C50.157 17.5634 50.5283 17.9351 50.9863 17.9351C51.4443 17.9351 51.8152 17.5634 51.8152 17.1061Z" fill="#740134"/>
<path id="path124" fill-rule="evenodd" clip-rule="evenodd" d="M2.71521 44.0634C2.71521 44.5217 3.08689 44.8931 3.54451 44.8931C4.00249 44.8931 4.37417 44.5217 4.37417 44.0634C4.37417 43.6058 4.00249 43.2345 3.54451 43.2345C3.08689 43.2345 2.71521 43.6058 2.71521 44.0634Z" fill="#740134"/>
<path id="path126" fill-rule="evenodd" clip-rule="evenodd" d="M75.6886 43.4463C75.3448 43.7489 75.3115 44.2734 75.6138 44.6172C75.9163 44.9609 76.4405 44.9943 76.7843 44.6913C77.128 44.3887 77.1613 43.8652 76.8588 43.5215C76.5562 43.1777 76.0323 43.1437 75.6886 43.4463Z" fill="#740134"/>
<path id="path128" d="M37.2867 16.0596C36.7904 16.0596 36.3683 16.2301 36.1091 16.5782V15.0305H38.5612V14.4308H35.4946V17.252H36.1241C36.3239 16.8001 36.6426 16.6079 37.1976 16.6079C37.8275 16.6079 38.2199 17.0519 38.2199 17.7633C38.2199 18.4891 37.7978 18.9486 37.1092 18.9486C36.5871 18.9486 36.1986 18.6914 36.1108 18.2693H35.4774C35.5845 19.028 36.1921 19.5483 37.102 19.5483C38.1755 19.5483 38.8716 18.7784 38.8716 17.7408C38.8716 16.7196 38.2571 16.0596 37.2867 16.0596Z" fill="#740134"/>
<path id="path130" d="M104.48 31.0088H106.858L108.84 37.7592L110.822 31.0088H113.199L109.988 40.5747H107.692L104.48 31.0088Z" fill="#740134"/>
<path id="path132" d="M113.88 33.9879H115.971V40.5747H113.88V33.9879ZM113.648 32.1296C113.648 31.4188 114.181 30.8448 114.932 30.8448C115.684 30.8448 116.231 31.4188 116.231 32.1296C116.231 32.826 115.684 33.4007 114.932 33.4007C114.181 33.4007 113.648 32.826 113.648 32.1296Z" fill="#740134"/>
<path id="path134" d="M117.691 31.0088H119.783V40.5747H117.691V31.0088Z" fill="#740134"/>
<path id="path136" d="M121.503 33.9879H123.595V34.9451C123.977 34.2064 124.729 33.8107 125.726 33.8107C127.326 33.8107 128.131 34.7123 128.131 36.5023V40.5747H126.027V37.1855C126.027 36.0791 125.712 35.5731 124.865 35.5731C124.032 35.5731 123.595 36.1192 123.595 37.1311V40.5747H121.503V33.9879Z" fill="#740134"/>
<path id="path138" d="M129.796 33.9879H131.887V40.5747H129.796V33.9879ZM129.563 32.1296C129.563 31.4188 130.097 30.8448 130.848 30.8448C131.6 30.8448 132.146 31.4188 132.146 32.1296C132.146 32.826 131.6 33.4007 130.848 33.4007C130.097 33.4007 129.563 32.826 129.563 32.1296Z" fill="#740134"/>
<path id="path140" d="M133.54 38.0595V33.9875H135.657V37.5951C135.657 38.4975 135.959 38.9887 136.751 38.9887C137.639 38.9887 138.022 38.4151 138.022 37.5271V33.9875H140.099V40.5743H138.022V39.6318C137.653 40.3279 136.97 40.7515 135.971 40.7515C134.387 40.7515 133.54 39.7675 133.54 38.0595Z" fill="#740134"/>
<path id="path142" d="M141.353 38.5926H143.43C143.43 39.0438 143.868 39.3725 144.51 39.3725C144.961 39.3725 145.276 39.1397 145.276 38.7573C145.276 38.4977 145.153 38.2782 144.797 38.1969L143.185 37.7869C142.091 37.5129 141.531 36.8297 141.531 35.8873C141.531 34.6573 142.611 33.7962 144.346 33.7962C146.273 33.7962 147.284 34.6025 147.284 35.8462H145.221C145.221 35.3814 144.879 35.1218 144.319 35.1218C143.868 35.1218 143.567 35.3402 143.567 35.6689C143.567 35.969 143.772 36.1606 144.128 36.2562L145.685 36.6798C146.696 36.9537 147.353 37.5685 147.353 38.5109C147.353 39.8637 146.273 40.7793 144.469 40.7793C142.542 40.7793 141.353 39.8369 141.353 38.5926Z" fill="#740134"/>
<path id="path144" d="M105.232 53.7301V47.4029H107.432V53.5929C107.432 54.6869 108.088 55.302 109.086 55.302C110.098 55.302 110.739 54.6869 110.739 53.5929V47.4029H112.953V53.7301C112.953 55.9573 111.437 57.2148 109.086 57.2148C106.735 57.2148 105.232 55.9573 105.232 53.7301Z" fill="#740134"/>
<path id="path146" d="M114.521 50.382H116.613V51.339C116.996 50.6004 117.747 50.2047 118.745 50.2047C120.343 50.2047 121.15 51.106 121.15 52.8967V56.9688H119.045V53.5796C119.045 52.4731 118.731 51.9671 117.884 51.9671C117.051 51.9671 116.613 52.5132 116.613 53.5247V56.9688H114.521V50.382Z" fill="#740134"/>
<path id="path148" d="M122.815 50.382H124.905V56.9688H122.815V50.382ZM122.582 48.5236C122.582 47.8128 123.115 47.2388 123.867 47.2388C124.618 47.2388 125.165 47.8128 125.165 48.5236C125.165 49.22 124.618 49.7947 123.867 49.7947C123.115 49.7947 122.582 49.22 122.582 48.5236Z" fill="#740134"/>
<path id="path150" d="M125.724 50.382H128.034L129.51 54.522L130.986 50.382H133.309L130.452 56.9688H128.567L125.724 50.382Z" fill="#740134"/>
<path id="path152" d="M138.24 52.951C138.227 52.0762 137.734 51.5839 136.846 51.5839C135.944 51.5839 135.398 52.1447 135.384 52.951H138.24ZM140.249 54.2491H135.384C135.425 55.1102 135.999 55.6015 136.929 55.6015C137.57 55.6015 137.981 55.3967 138.158 54.9867H140.208C140.003 56.2854 138.678 57.1738 136.929 57.1738C134.687 57.1738 133.307 55.8758 133.307 53.6755C133.307 51.5159 134.715 50.1903 136.86 50.1903C138.909 50.1903 140.304 51.4751 140.304 53.3331C140.304 53.6887 140.29 53.867 140.249 54.2491Z" fill="#740134"/>
<path id="path154" d="M141.504 50.382H143.595V51.7624C143.827 50.7783 144.606 50.2728 145.412 50.2728C145.659 50.2728 145.794 50.286 145.959 50.3271V52.2679C145.713 52.2404 145.59 52.2267 145.331 52.2267C144.305 52.2267 143.595 52.8419 143.595 54.4275V56.9688H141.504V50.382Z" fill="#740134"/>
<path id="path156" d="M146.504 54.9867H148.582C148.582 55.4378 149.019 55.7662 149.661 55.7662C150.112 55.7662 150.426 55.5335 150.426 55.1514C150.426 54.8918 150.303 54.6727 149.948 54.591L148.335 54.181C147.243 53.9071 146.682 53.2243 146.682 52.2815C146.682 51.0515 147.762 50.1903 149.497 50.1903C151.424 50.1903 152.435 50.9967 152.435 52.2403H150.371C150.371 51.7755 150.03 51.5159 149.469 51.5159C149.019 51.5159 148.718 51.7347 148.718 52.063C148.718 52.3627 148.923 52.5543 149.279 52.6503L150.836 53.0735C151.848 53.3478 152.503 53.9627 152.503 54.9054C152.503 56.2579 151.424 57.1738 149.62 57.1738C147.693 57.1738 146.504 56.231 146.504 54.9867Z" fill="#740134"/>
<path id="path158" d="M153.8 50.382H155.891V56.9688H153.8V50.382ZM153.567 48.5236C153.567 47.8128 154.101 47.2388 154.852 47.2388C155.604 47.2388 156.15 47.8128 156.15 48.5236C156.15 49.22 155.604 49.7947 154.852 49.7947C154.101 49.7947 153.567 49.22 153.567 48.5236Z" fill="#740134"/>
<path id="path160" d="M161.793 55.3021V56.9689C161.492 57.0233 161 57.0781 160.4 57.0781C159.415 57.0781 158.062 56.8597 158.062 54.6593V52.0354H157.024V50.3822H158.062V48.4282H160.153V50.3822H161.643V52.0354H160.153V54.2225C160.153 55.1922 160.55 55.3421 161.069 55.3421C161.328 55.3421 161.602 55.3289 161.793 55.3021Z" fill="#740134"/>
<path id="path162" d="M169.54 50.382V56.7636C169.54 57.8299 169.158 58.6356 168.597 59.1416C168.009 59.6471 167.285 59.9067 166.178 59.9067C165.058 59.9067 164.293 59.6747 163.746 59.2235C163.268 58.8136 162.94 58.1988 162.926 57.488H165.031C165.071 58.0484 165.386 58.376 166.178 58.376C166.944 58.376 167.45 57.9255 167.45 56.9007V55.876C167.08 56.572 166.356 56.9688 165.358 56.9688C163.678 56.9688 162.926 55.848 162.926 54.208V50.382H165.017V53.894C165.017 54.7416 165.304 55.3152 166.178 55.3152C167.025 55.3152 167.45 54.6592 167.45 53.6476V50.382H169.54Z" fill="#740134"/>
</g>
</g>
</g>
<defs>
<clipPath id="clip0_3610_77844">
<rect width="169.345" height="88" fill="white" transform="translate(0.197632)"/>
</clipPath>
</defs>
</svg>
